<?xml version="1.0" standalone="no"?><!DOCTYPE svg PUBLIC "-//W3C//DTD SVG 1.1//EN" "http://www.w3.org/Graphics/SVG/1.1/DTD/svg11.dtd"><svg t="1743821871528" class="icon" viewBox="0 0 1024 1024" version="1.1" xmlns="http://www.w3.org/2000/svg" p-id="22804" xmlns:xlink="http://www.w3.org/1999/xlink" width="200" height="200"><path d="M623.030857 535.917714c-3.218286-1.609143-8.045714-3.437714-14.116571-5.851428-5.485714-1.974857-10.971429-4.169143-16.310857-6.363429a65.536 65.536 0 0 0-11.702858 15.872 43.008 43.008 0 0 0-5.12 20.845714c0 11.410286 3.657143 20.48 11.117715 27.282286a41.691429 41.691429 0 0 0 29.403428 10.24 44.324571 44.324571 0 0 0 22.381715-6.582857 30.72 30.72 0 0 0 8.777142-8.850286 25.161143 25.161143 0 0 0 3.218286-13.824 28.379429 28.379429 0 0 0-5.12-18.358857c-3.657143-4.242286-11.044571-8.996571-22.528-14.409143z m-18.797714-59.977143a197.485714 197.485714 0 0 0 11.190857 4.754286l17.261714 6.436572a70.070857 70.070857 0 0 0 9.581715-16.237715 49.225143 49.225143 0 0 0 2.998857-17.773714 24.941714 24.941714 0 0 0-8.484572-19.894857 33.060571 33.060571 0 0 0-22.893714-7.533714 35.108571 35.108571 0 0 0-22.381714 6.729142 20.626286 20.626286 0 0 0-8.484572 16.603429c0 6.509714 1.755429 11.849143 5.12 15.798857a47.542857 47.542857 0 0 0 16.091429 11.044572z m-192.512 46.08a31.597714 31.597714 0 0 0-12.726857-6.290285 62.756571 62.756571 0 0 0-28.525715 0 95.817143 95.817143 0 0 0-13.165714 4.096c0 1.097143 0 2.925714-0.219428 5.339428l-0.073143 9.508572c0 14.043429 1.170286 25.307429 3.657143 33.792a52.297143 52.297143 0 0 0 9.508571 19.456 26.697143 26.697143 0 0 0 21.942857 9.874285c3.291429 0 6.948571-0.731429 10.898286-2.413714a25.161143 25.161143 0 0 0 9.947428-7.314286 44.982857 44.982857 0 0 0 7.533715-12.946285 64.950857 64.950857 0 0 0 2.633143-21.138286 53.979429 53.979429 0 0 0-2.998858-19.456 27.428571 27.428571 0 0 0-8.411428-12.507429z m418.011428-46.08a197.485714 197.485714 0 0 0 11.190858 4.754286l17.261714 6.436572a63.634286 63.634286 0 0 0 9.581714-16.237715 49.152 49.152 0 0 0 3.145143-17.773714 25.526857 25.526857 0 0 0-8.411429-19.894857 33.499429 33.499429 0 0 0-22.966857-7.533714 34.669714 34.669714 0 0 0-22.308571 6.729142 20.333714 20.333714 0 0 0-8.557714 16.603429 23.405714 23.405714 0 0 0 5.12 15.798857 46.957714 46.957714 0 0 0 15.945142 11.044572z" fill="#FF6600" p-id="22805"></path><path d="M896 0H128A128 128 0 0 0 0 128v768C0 966.729143 57.270857 1024 128 1024h768A128 128 0 0 0 1024 896V128A128 128 0 0 0 896 0zM251.392 634.294857h-166.034286v-42.788571h53.028572v-129.462857h-52.955429V422.034286c7.753143 0 15.36-0.512 23.04-1.462857a59.611429 59.611429 0 0 0 18.432-4.827429 30.72 30.72 0 0 0 12.580572-10.605714 33.572571 33.572571 0 0 0 5.193142-16.530286h55.003429v202.825143h51.785143v42.788571zM461.531429 614.4c-16.822857 16.603429-39.862857 24.868571-69.12 24.868571-14.628571 0-27.721143-2.048-39.204572-6.144a77.970286 77.970286 0 0 1-29.257143-18.139428 91.574857 91.574857 0 0 1-21.942857-36.498286 165.595429 165.595429 0 0 1-7.606857-53.394286c0-21.504 2.267429-40.521143 7.094857-57.197714 4.827429-16.676571 12.434286-31.451429 23.113143-44.178286 10.24-12.214857 23.698286-21.723429 40.228571-28.525714 16.457143-6.875429 36.132571-10.24 58.733715-10.24 8.265143 0 16.530286 0.438857 24.722285 1.462857 8.338286 1.097143 13.897143 1.901714 17.042286 2.486857v48.128H460.8a96.329143 96.329143 0 0 0-37.668571-7.460571c-19.821714 0-35.035429 5.046857-45.714286 15.140571-10.752 10.093714-17.334857 24.502857-19.748572 43.373715 8.118857-5.12 16.530286-9.289143 25.014858-12.288 8.484571-3.072 18.139429-4.608 28.818285-4.608 8.996571 0 17.554286 1.243429 25.380572 3.510857 8.045714 2.413714 14.994286 5.851429 21.284571 10.24a68.754286 68.754286 0 0 1 20.699429 25.6c5.12 10.459429 7.753143 23.990857 7.753143 40.374857 0.073143 25.819429-8.338286 46.884571-25.088 63.488z m245.028571-18.870857a67.145143 67.145143 0 0 1-19.675429 23.405714c-8.484571 6.582857-19.017143 11.702857-31.451428 15.433143-12.214857 3.730286-26.331429 5.632-42.349714 5.632-16.822857 0-31.670857-1.901714-44.470858-5.705143a89.819429 89.819429 0 0 1-31.305142-15.36 61.147429 61.147429 0 0 1-17.773715-22.966857 68.169143 68.169143 0 0 1-5.705143-27.794286c0-13.970286 3.949714-25.673143 11.849143-34.962285 7.899429-9.289143 19.456-17.115429 34.523429-23.332572v-0.950857c-14.774857-7.021714-25.014857-15.506286-30.866286-25.526857a64.292571 64.292571 0 0 1-8.777143-33.28 53.101714 53.101714 0 0 1 6.070857-25.307429 64.658286 64.658286 0 0 1 18.139429-21.211428c7.753143-5.851429 17.408-10.678857 29.110857-14.189715 11.849143-3.510857 25.014857-5.339429 39.716572-5.339428 15.506286 0 29.110857 1.609143 40.594285 4.827428 11.483429 3.291429 20.992 7.533714 28.525715 12.8a55.076571 55.076571 0 0 1 17.554285 19.382858c4.096 7.606857 6.217143 16.091429 6.144 24.868571a52.004571 52.004571 0 0 1-10.386285 31.451429 77.531429 77.531429 0 0 1-31.817143 23.625142v0.950858c16.676571 6.582857 28.964571 15.213714 36.864 25.892571a62.829714 62.829714 0 0 1 11.849143 38.4 63.049143 63.049143 0 0 1-6.436572 29.257143z m225.426286 0a67.949714 67.949714 0 0 1-19.456 23.405714c-8.557714 6.582857-19.017143 11.702857-31.305143 15.433143-12.434286 3.730286-26.550857 5.632-42.422857 5.632-16.896 0-31.817143-1.901714-44.470857-5.705143a90.697143 90.697143 0 0 1-31.305143-15.36 59.904 59.904 0 0 1-17.700572-22.966857 68.242286 68.242286 0 0 1-5.851428-27.794286c0-13.970286 4.022857-25.673143 11.922285-34.962285 7.899429-9.289143 19.529143-17.115429 34.596572-23.332572v-0.950857c-14.774857-7.021714-25.088-15.506286-31.012572-25.526857a64.292571 64.292571 0 0 1-8.777142-33.28c0-8.996571 1.974857-17.408 6.070857-25.307429a63.488 63.488 0 0 1 18.285714-21.211428c7.606857-5.851429 17.334857-10.678857 29.110857-14.189715a138.971429 138.971429 0 0 1 39.643429-5.339428c15.506286 0 29.110857 1.609143 40.594285 4.827428 11.483429 3.291429 20.992 7.533714 28.525715 12.8a55.076571 55.076571 0 0 1 17.554285 19.382858 51.492571 51.492571 0 0 1 6.144 24.868571 52.004571 52.004571 0 0 1-10.459428 31.451429 77.531429 77.531429 0 0 1-31.744 23.625142v0.950858c16.676571 6.582857 28.964571 15.213714 36.790857 25.892571a62.829714 62.829714 0 0 1 11.776 38.4 63.122286 63.122286 0 0 1-6.509714 29.257143z" fill="#FF6600" p-id="22806"></path><path d="M848.457143 535.917714a208.676571 208.676571 0 0 0-14.043429-5.851428c-5.485714-1.974857-10.971429-4.169143-16.310857-6.363429a65.536 65.536 0 0 0-11.702857 15.872 43.081143 43.081143 0 0 0-5.193143 20.845714c0 11.410286 3.657143 20.48 11.190857 27.282286 7.533714 6.802286 17.188571 10.24 29.403429 10.24a44.324571 44.324571 0 0 0 22.381714-6.582857 32.036571 32.036571 0 0 0 8.777143-8.850286 25.161143 25.161143 0 0 0 3.218286-13.824 28.379429 28.379429 0 0 0-5.266286-18.358857c-3.437714-4.242286-10.971429-8.996571-22.381714-14.409143z" fill="#FF6600" p-id="22807"></path></svg>