<?xml version="1.0" standalone="no"?><!DOCTYPE svg PUBLIC "-//W3C//DTD SVG 1.1//EN" "http://www.w3.org/Graphics/SVG/1.1/DTD/svg11.dtd"><svg t="1743822719237" class="icon" viewBox="0 0 1024 1024" version="1.1" xmlns="http://www.w3.org/2000/svg" p-id="59129" xmlns:xlink="http://www.w3.org/1999/xlink" width="200" height="200"><path d="M356.571429 576a155.428571 155.428571 0 1 1 310.857142 0 155.428571 155.428571 0 0 1-310.857142 0zM512 475.428571a100.571429 100.571429 0 1 0 0 201.142858 100.571429 100.571429 0 0 0 0-201.142858z" fill="#1296db" p-id="59130"></path><path d="M539.611429 149.321143V250.88a435.2 435.2 0 0 1 156.342857 41.289143l41.764571-58.294857a27.428571 27.428571 0 0 1 44.580572 31.963428l-37.851429 52.809143c20.406857 12.8 39.497143 26.843429 56.905143 41.801143 72.484571 62.098286 122.075429 143.689143 122.075428 215.588571 0 71.899429-49.590857 153.490286-122.038857 215.588572-73.581714 63.012571-175.725714 110.518857-289.389714 110.518857-113.700571 0-215.808-47.542857-289.389714-110.555429-72.448-62.098286-122.038857-143.725714-122.038857-215.552 0-71.862857 49.590857-153.453714 122.038857-215.552A474.038857 474.038857 0 0 1 297.618286 307.931429l-36.937143-51.565715a27.428571 27.428571 0 0 1 44.580571-31.963428L347.611429 283.428571a431.250286 431.250286 0 0 1 137.142857-32.658285V149.321143a27.428571 27.428571 0 0 1 54.857143 0z m-281.307429 252.781714c-66.486857 57.014857-102.875429 124.708571-102.875429 173.897143 0 49.152 36.388571 116.882286 102.875429 173.897143 65.462857 56.027429 155.318857 97.353143 253.696 97.353143 98.377143 0 188.269714-41.289143 253.696-97.316572 66.486857-56.978286 102.875429-124.708571 102.875429-173.933714s-36.388571-116.955429-102.875429-173.933714c-65.462857-56.027429-155.318857-97.28-253.696-97.28-98.377143 0-188.269714 41.252571-253.696 97.316571z" fill="#1296db" p-id="59131"></path></svg>