<?xml version="1.0" standalone="no"?><!DOCTYPE svg PUBLIC "-//W3C//DTD SVG 1.1//EN" "http://www.w3.org/Graphics/SVG/1.1/DTD/svg11.dtd"><svg t="1743822131481" class="icon" viewBox="0 0 3608 1024" version="1.1" xmlns="http://www.w3.org/2000/svg" p-id="42215" xmlns:xlink="http://www.w3.org/1999/xlink" width="704.6875" height="200"><path d="M72.118857 396.336762h345.478095v97.03619l-129.901714 9.996191C77.775238 519.119238 12.141714 574.659048 12.141714 730.453333v31.451429c0 114.005333 79.969524 182.759619 202.703238 182.759619 97.133714 0 152.771048-22.918095 221.379048-92.842667h11.361524v74.264381h138.483809V244.97981H72.118857v151.356952z m345.478095 328.411428c-42.76419 42.715429-107.081143 71.241143-159.890285 71.241143-57.051429 0-81.383619-21.455238-79.969524-68.559238 1.462857-65.633524 25.697524-81.383619 135.655619-91.331047l104.20419-9.996191v98.645333z" fill="#FF8800" p-id="42216"></path><path d="M877.226667 245.028571h267.02019v138.48381h145.603048V925.988571h-169.886476V397.799619h-242.688V925.988571h-169.935239V40.813714h169.935239v204.214857z m2484.419047 274.090667l-102.790095-10.044952c-57.051429-5.705143-71.289905-19.943619-71.289905-65.633524 0-51.395048 19.992381-64.26819 99.766857-64.268191 71.289905 0 91.37981 11.459048 101.424762 59.977143h159.890286c-4.291048-162.718476-54.272-204.263619-252.781714-204.263619-216.990476 0-271.262476 41.447619-271.262476 208.457143 0 152.771048 39.984762 194.169905 201.386666 209.871238l84.21181 8.582095c75.678476 7.119238 94.208 21.455238 94.208 67.096381 0 55.686095-22.869333 69.924571-115.663238 69.924572-81.383619 0-102.790095-12.824381-107.081143-65.633524h-161.499429c4.291048 168.472381 55.686095 211.285333 261.266286 211.285333 228.449524 0 285.549714-45.689905 285.549714-231.277714 0.24381-138.386286-41.155048-178.41981-205.336381-194.072381z m-874.691047 12.824381c0-219.867429-75.580952-296.96-292.668953-296.96-214.162286 0-298.422857 99.766857-298.422857 348.355048 0 271.311238 74.264381 361.081905 314.124191 361.081904 172.81219 0 245.564952-52.857905 269.848381-201.386666H2315.702857c-18.529524 45.933714-38.521905 55.881143-108.251428 55.881143-105.667048 0-132.778667-29.93981-138.48381-157.013334h406.869333c6.826667-36.278857 10.581333-73.045333 11.215238-109.958095z m-416.865524-24.283429c1.462857-95.622095 39.984762-131.31581 131.364571-131.315809 87.088762 0 122.733714 35.693714 125.659429 131.315809h-256.975238z m515.803428-232.740571V925.988571h169.935239V390.582857h204.263619V245.028571h-204.312381v-18.529523c1.414095-39.984762 11.410286-51.44381 44.275809-51.44381h185.58781V40.813714h-199.92381c-135.606857 0-199.826286 41.398857-199.826286 234.105905zM1584.274286 925.988571h-169.886476V245.077333h422.619428v159.890286h-252.732952V925.988571z" fill="#FFFFFF" p-id="42217"></path></svg>