<?xml version="1.0" standalone="no"?><!DOCTYPE svg PUBLIC "-//W3C//DTD SVG 1.1//EN" "http://www.w3.org/Graphics/SVG/1.1/DTD/svg11.dtd"><svg t="1743821722063" class="icon" viewBox="0 0 1024 1024" version="1.1" xmlns="http://www.w3.org/2000/svg" p-id="11746" xmlns:xlink="http://www.w3.org/1999/xlink" width="200" height="200"><path d="M569.6 362.24c-59.52 7.04-136.768 11.52-192.704 37.12-64.448 29.44-109.44 88.96-109.44 176 0 112 66.88 168.32 153.216 168.32 72.96 0 112.448-17.92 169.024-78.08 18.88 28.16 24.96 42.24 59.008 71.68 7.872 4.48 17.6 3.84 24.32-2.56 20.672-19.2 57.728-53.12 78.4-71.68 8.512-7.04 6.72-18.56 0.64-28.8-18.88-27.52-38.912-49.28-38.912-99.84V367.36c0-71.04 4.864-136.32-44.992-185.6C628.608 142.08 563.52 128 513.664 128c-97.28 0-206.08 38.4-229.184 165.12-2.432 13.44 6.656 20.48 15.168 22.4l99.136 11.52c9.088-0.64 15.808-10.24 17.6-19.84 8.512-43.52 43.2-64.64 82.112-64.64 21.248 0 44.992 8.32 57.728 28.16 14.592 22.4 12.16 52.48 12.16 78.08v13.44h1.28z m-19.456 224.64c-16.384 30.08-41.92 49.28-71.104 49.28-39.552 0-62.08-31.36-62.08-78.08 0-91.52 78.464-108.8 152.64-108.8v23.04c0 41.6 0.64 76.8-19.456 114.56z" fill="#000000" p-id="11747"></path><path d="M784.896 785.92c-86.4 38.4-179.968 56.96-265.152 56.96-126.464 0-248.64-36.48-347.776-97.28-8.512-5.12-15.168 3.84-7.872 10.88C255.872 843.52 376.896 896 511.232 896c96.128 0 207.36-32 284.608-91.52 12.8-9.6 2.432-24.96-10.944-18.56z" fill="#F59700" p-id="11748"></path><path d="M860.864 739.84c-8.512-10.88-80.256-20.48-124.608 12.16-6.72 5.12-5.504 12.16 1.792 10.88 24.96-3.2 79.68-10.24 89.984 3.2 9.728 13.44-10.88 67.84-20.032 92.16-3.072 7.68 3.008 10.24 9.728 4.48 40.704-35.84 51.648-112 43.136-122.88z" fill="#F59700" p-id="11749"></path></svg>