<?xml version="1.0" standalone="no"?><!DOCTYPE svg PUBLIC "-//W3C//DTD SVG 1.1//EN" "http://www.w3.org/Graphics/SVG/1.1/DTD/svg11.dtd"><svg t="1743833971274" class="icon" viewBox="0 0 1024 1024" version="1.1" xmlns="http://www.w3.org/2000/svg" p-id="11920" xmlns:xlink="http://www.w3.org/1999/xlink" width="200" height="200"><path d="M512 512m-448 0a448 448 0 1 0 896 0 448 448 0 1 0-896 0Z" fill="#F1A82B" p-id="11921"></path><path d="M512 0a512 512 0 1 1 0 1024A512 512 0 0 1 512 0z m0 64a448 448 0 1 0 0 896A448 448 0 0 0 512 64z m53.568 194.688l14.08 0.512c54.72 3.2 94.08 21.12 117.952 53.44 15.552 21.504 23.36 47.36 23.36 77.312 0 30.976-7.808 55.808-23.36 74.624-8.704 10.56-21.568 20.16-38.528 28.864 25.92 9.408 45.44 24.32 58.624 44.672 13.184 20.416 19.776 45.184 19.776 74.24 0 30.08-7.552 56.96-22.656 80.832a140.032 140.032 0 0 1-93.696 65.28c-22.144 4.608-46.08 6.848-72 6.848H319.488V258.688h246.08z m-18.88 283.52H420.544v135.104h124.416c22.272 0 39.552-2.944 51.904-8.96 22.464-10.944 33.728-32 33.728-63.168 0-26.368-10.88-44.48-32.64-54.4-12.16-5.44-29.248-8.32-51.264-8.512z m-14.72-195.52H420.48v111.68h124.416c22.272 0 40.32-4.16 54.144-12.544 13.888-8.32 20.8-23.168 20.8-44.48 0-23.68-9.152-39.232-27.52-46.784-15.808-5.248-35.968-7.872-60.48-7.872z" fill="#FFFFFF" p-id="11922"></path></svg>