<?xml version="1.0" standalone="no"?><!DOCTYPE svg PUBLIC "-//W3C//DTD SVG 1.1//EN" "http://www.w3.org/Graphics/SVG/1.1/DTD/svg11.dtd"><svg t="1743836855917" class="icon" viewBox="0 0 1024 1024" version="1.1" xmlns="http://www.w3.org/2000/svg" p-id="25225" xmlns:xlink="http://www.w3.org/1999/xlink" width="200" height="200"><path d="M844.8 64c0-6.4-6.4-19.2-19.2-19.2-6.4-6.4-19.2-6.4-25.6-6.4s-19.2 0-25.6 6.4-12.8 6.4-19.2 19.2l-32 89.6c0 6.4-6.4 12.8-12.8 19.2-6.4 6.4-12.8 6.4-19.2 12.8l-83.2 25.6c-6.4 0-19.2 6.4-19.2 19.2-12.8 6.4-12.8 19.2-12.8 25.6 0 6.4 0 19.2 6.4 25.6l19.2 19.2 89.6 32c6.4 0 12.8 6.4 19.2 12.8 6.4 6.4 6.4 12.8 12.8 19.2l32 83.2c0 6.4 6.4 19.2 19.2 19.2 6.4 6.4 19.2 6.4 25.6 6.4s19.2 0 25.6-6.4c6.4 0 12.8-6.4 19.2-19.2l32-89.6c0-6.4 6.4-12.8 12.8-19.2 6.4-6.4 12.8-6.4 19.2-12.8l89.6-32c6.4 0 19.2-6.4 19.2-19.2 6.4 0 6.4-12.8 6.4-19.2 0-6.4 0-19.2-6.4-25.6l-19.2-19.2-89.6-32c-6.4 0-12.8-6.4-19.2-12.8-6.4-6.4-6.4-12.8-12.8-19.2L844.8 64z" p-id="25226" fill="#1296db"></path><path d="M864 524.8c-19.2 12.8-38.4 19.2-64 19.2s-44.8-6.4-64-19.2c-19.2-12.8-32-32-38.4-57.6L672 384l-83.2-25.6c-25.6-6.4-44.8-19.2-57.6-38.4-12.8-19.2-19.2-38.4-19.2-64s6.4-44.8 19.2-64c6.4-12.8 19.2-25.6 38.4-32H358.4c-96 0-147.2 0-179.2 25.6l-25.6 25.6C128 243.2 128 294.4 128 390.4v307.2c0 96 0 147.2 25.6 179.2l19.2 19.2 6.4 6.4c32 25.6 83.2 25.6 179.2 25.6h307.2c96 0 147.2 0 179.2-25.6l6.4-6.4 19.2-19.2c25.6-32 25.6-83.2 25.6-179.2V486.4c-6.4 12.8-19.2 25.6-32 38.4zM403.2 384c44.8 0 83.2 38.4 83.2 83.2s-44.8 76.8-83.2 76.8S320 505.6 320 467.2 358.4 384 403.2 384z m384 428.8c-6.4 6.4-6.4 6.4-19.2 6.4H236.8l108.8-134.4c6.4-6.4 19.2-12.8 32-12.8s25.6 6.4 32 19.2l38.4 51.2 102.4-140.8c6.4-19.2 12.8-25.6 25.6-25.6s25.6 6.4 32 12.8l179.2 224zM787.2 812.8zM780.8 819.2zM243.2 819.2zM236.8 812.8z" p-id="25227" fill="#1296db"></path></svg>