<?xml version="1.0" standalone="no"?><!DOCTYPE svg PUBLIC "-//W3C//DTD SVG 1.1//EN" "http://www.w3.org/Graphics/SVG/1.1/DTD/svg11.dtd"><svg t="1743821785966" class="icon" viewBox="0 0 3584 1024" version="1.1" xmlns="http://www.w3.org/2000/svg" p-id="17048" xmlns:xlink="http://www.w3.org/1999/xlink" width="700" height="200"><path d="M599.0912 457.0112s9.472-165.632 198.656-165.632c188.6208-0.1024 188.6208 165.632 188.6208 165.632h-387.2768zM801.024 204.8c-329.0112 0-341.8112 252.928-340.1216 318.6176 0 0-16.128 295.7824 332.1856 295.7824 299.1616 0 313.856-185.5488 313.856-185.5488l-137.6256 0.2048s-26.8288 102.2976-175.7184 99.5328c-191.4368-3.4816-198.912-186.6752-198.912-186.6752h530.432S1165.312 204.9024 800.9728 204.8z" fill="#EC3032" p-id="17049"></path><path d="M1457.664 733.5424c-202.0864 2.5088-198.912-212.3264-198.912-212.3264s-7.2704-206.7968 198.6048-212.1216c205.824-5.2736 199.168 216.4736 199.168 216.4736s3.1744 205.4656-198.912 207.9744z m29.3376-510.3616c-160-0.8704-228.864 93.9008-228.864 93.9008V0h-128.256l2.1504 670.1056s-0.8192 78.0288-5.632 129.6384h124.5696l5.376-75.264S1314.5088 819.2 1484.3392 819.2 1788.416 715.5712 1792 523.4176c3.584-192.2048-144.896-299.3152-304.9472-300.2368z" fill="#0061D4" p-id="17050"></path><path d="M2041.856 736.0512s-119.296 0.1024-126.3104-104.2432c-7.424-111.5136 183.5008-104.8064 183.5008-104.8064l134.8608-0.1536s21.76 212.224-192.1024 209.2032z m310.8864-72.6016c0.256-88.9344 2.6624-168.3456 0-224.4096-3.1232-64.9216 2.4576-221.696-253.696-233.2672 0 0-245.6064-24.576-271.1552 175.8208h125.6448s9.728-91.8528 137.216-89.1904c120.6272 2.56 142.592 67.3792 141.9776 147.1488 0 0-103.424 0.3072-137.9328 0.512-62.1568 0.3072-279.7056 7.8848-300.032 153.2416-24.1664 172.6464 116.5312 226.56 226.56 225.8944 110.08-0.7168 172.8-36.8128 219.4432-101.5808l5.0176 80.4352L2355.2 797.3888s-2.816-45.0048-2.4576-133.9392z" fill="#F7B000" p-id="17051"></path><path d="M2304 256h148.3776l216.8832 430.7968L2886.7072 256H3020.8l-392.4992 768h-143.4112l113.6128-213.4016z" fill="#86BA00" p-id="17052"></path></svg>