<?xml version="1.0" standalone="no"?><!DOCTYPE svg PUBLIC "-//W3C//DTD SVG 1.1//EN" "http://www.w3.org/Graphics/SVG/1.1/DTD/svg11.dtd"><svg t="1743822144541" class="icon" viewBox="0 0 1024 1024" version="1.1" xmlns="http://www.w3.org/2000/svg" p-id="43240" xmlns:xlink="http://www.w3.org/1999/xlink" width="200" height="200"><path d="M974.491501 895.85087a127.259348 127.259348 0 0 1-126.589821 127.928875 121.716059 121.716059 0 0 1-15.664961-0.886138 130.508523 130.508523 0 0 1-111.377776-132.270954V133.161228A130.557753 130.557753 0 0 1 832.443484 0.890274a127.101812 127.101812 0 0 1 142.038171 127.013198z" fill="#F9AB00" p-id="43241"></path><path d="M176.326777 770.324415A126.835971 126.835971 0 1 1 49.490806 897.160386a126.835971 126.835971 0 0 1 126.835971-126.835971z m333.709949-384.426614a130.518369 130.518369 0 0 0-123.340647 133.363859v340.671059c0 92.463639 40.693453 148.575904 100.301043 160.489546a127.013199 127.013199 0 0 0 149.747577-99.286907 124.157863 124.157863 0 0 0 2.530418-25.599559v-382.122654A127.259348 127.259348 0 0 0 512.252072 385.897801h-2.215346z" fill="#E37400" p-id="43242"></path></svg>