<?xml version="1.0" standalone="no"?><!DOCTYPE svg PUBLIC "-//W3C//DTD SVG 1.1//EN" "http://www.w3.org/Graphics/SVG/1.1/DTD/svg11.dtd"><svg t="1743822237373" class="icon" viewBox="0 0 1024 1024" version="1.1" xmlns="http://www.w3.org/2000/svg" p-id="47250" xmlns:xlink="http://www.w3.org/1999/xlink" width="200" height="200"><path d="M0.001598 0h1022.721598v1022.721598H0.001598V0z" fill="#FDFDFD" p-id="47251"></path><path d="M680.111461 327.270911c-0.230112 6.780644 1.472719 12.745668 5.113608 17.897628 7.762457 101.71989-36.557184 168.621223-132.953808 200.709114-24.793328 4.308215-49.509953 4.732644-74.147316 1.278402-5.15196-3.640889-11.116984-5.34372-17.897628-5.113608-48.027006-16.125763-83.397833-46.807411-106.107366-92.044944-35.644404-93.318232-13.060155-168.74395 67.755306-226.277153 86.545258-42.036414 162.824949-27.973993 228.833958 42.187265 14.601908 18.122627 24.402137 38.577059 29.403246 61.363296z" fill="#2BB474" p-id="47252"></path><path d="M524.146417 273.578027a247.685273 247.685273 0 0 0-40.908864 2.556804c7.302232-3.850547 15.39963-5.553378 24.289638-5.113608 6.036614 0.010227 11.574652 0.861643 16.619226 2.556804z" fill="#B3E4CC" p-id="47253"></path><path d="M524.146417 273.578027c34.537308 3.896569 60.105348 20.940225 76.70412 51.13608-2.395725 9.67239-8.363306 13.507596-17.897628 11.505618-14.522647-20.942782-34.125663-34.153788-58.806492-39.630462-4.177818-1.690047-8.864439-2.541463-14.062422-2.556804-8.053933-0.357953-15.297358 1.347436-21.732834 5.113608-42.621923 17.023201-60.092564 48.556265-52.414482 94.601748 14.701623 45.500884 45.8077 64.676914 93.323346 57.52809 18.55984-4.162477 33.900664-13.538277 46.022472-28.124844l-35.795256-2.556804c-6.478941-7.023541-6.478941-13.83998 0-20.454432 23.847311-1.278402 47.712519-1.702831 71.590512-1.278402 0.424429 23.877993 0 47.743201-1.278402 71.590512-5.934342 8.736599-12.753338 9.588015-20.454432 2.556804l-2.556804-28.124844c-28.388195 27.153258-62.053633 36.953488-100.993758 29.403246-53.951121-19.899605-79.092175-58.676095-75.425718-116.334582 9.485743-40.586707 33.775381-67.860135 72.868914-81.817728a247.685273 247.685273 0 0 1 40.908864-2.556804z" fill="#F7FCF9" p-id="47254"></path><path d="M524.146417 296.589263a211.524395 211.524395 0 0 0-35.795256 2.556804c6.435476-3.766172 13.678901-5.471561 21.732834-5.113608 5.197983 0.015341 9.884604 0.866757 14.062422 2.556804z" fill="#7CD0A8" p-id="47255"></path><path d="M680.111461 327.270911c3.640889 5.15196 5.34372 11.116984 5.113608 17.897628-3.640889-5.15196-5.34372-11.116984-5.113608-17.897628z" fill="#93D8B7" p-id="47256"></path><path d="M460.226317 542.042447c6.780644-0.230112 12.745668 1.472719 17.897628 5.113608-6.780644 0.230112-12.745668-1.472719-17.897628-5.113608z" fill="#79CFA5" p-id="47257"></path><path d="M836.076504 659.655431c7.325243-1.137778 13.717253 0.56761 19.17603 5.113608 1.705388 40.908864 1.705388 81.817728 0 122.726591-7.670412 6.818996-15.340824 6.818996-23.011236 0-1.705388-40.908864-1.705388-81.817728 0-122.726591 1.833228-1.390901 3.11163-3.09629 3.835206-5.113608z" fill="#4C4C4C" p-id="47258"></path><path d="M345.170137 695.450687c10.326931-2.147715 17.997343 1.260504 23.011236 10.227216 11.889139-9.749094 25.527131-12.732884 40.908864-8.948814a45.618497 45.618497 0 0 1 14.062422 11.505618c14.433159-13.40788 31.052385-16.39167 49.857678-8.948814a37.099226 37.099226 0 0 1 11.505618 11.505618c1.705388 25.56804 1.705388 51.13608 0 76.704119-7.670412 6.818996-15.340824 6.818996-23.011236 0l-2.556804-58.806491c-10.352499-13.597084-20.579715-13.597084-30.681648 0a405.777578 405.777578 0 0 1-5.113608 61.363295c-6.138886 2.817598-12.530896 3.244584-19.17603 1.278402a24.172025 24.172025 0 0 1-3.835206-6.39201l-2.556804-58.806491c-12.533453-11.469823-22.760669-9.764434-30.681648 5.113608l-2.556804 56.249687c-7.670412 6.818996-15.340824 6.818996-23.011236 0a739.187376 739.187376 0 0 1 0-86.931335c1.833228-1.390901 3.11163-3.09629 3.835206-5.113608z" fill="#4D4D4D" p-id="47259"></path><path d="M874.428564 695.450687c7.325243-1.137778 13.717253 0.56761 19.17603 5.113608a1112.639281 1112.639281 0 0 0 23.011236 56.249688 609.956275 609.956275 0 0 1 23.011236-58.806492c17.079451-5.936899 23.898447 0.030682 20.454432 17.897628a1363.781353 1363.781353 0 0 0-35.795256 86.931335c-13.0397 21.423461-30.085913 25.685653-51.13608 12.78402-2.065898-5.315596-1.638911-10.429203 1.278402-15.340824a67.517523 67.517523 0 0 1 23.011236-1.278402c2.746007-1.889478 4.451396-4.446282 5.113608-7.670412a3091.503301 3091.503301 0 0 1-31.96005-77.982521c-2.129818-6.829223-0.851416-12.794247 3.835206-17.897628zM508.805593 695.450687c11.771526-2.866177 19.014951 1.393458 21.732834 12.78402 10.585169-12.045104 23.793618-15.88031 39.630462-11.505618 6.586327 1.999421 11.699935 5.834627 15.340824 11.505618 14.970087-13.341403 32.0163-16.325194 51.13608-8.948814a45.618497 45.618497 0 0 1 11.505618 14.062422c1.705388 24.716624 1.705388 49.430692 0 74.147315-9.253074 7.268994-17.774901 6.417578-25.56804-2.556804l-2.556804-58.806491c-9.577788-9.953638-18.951031-9.953638-28.124844 0l-2.556804 58.806491c-7.793139 8.974382-16.314966 9.825798-25.56804 2.556804l-2.556804-58.806491c-10.352499-13.597084-20.579715-13.597084-30.681648 0a405.777578 405.777578 0 0 1-5.113608 61.363295c-9.068984 4.22384-16.739396 2.518452-23.011236-5.113608a654.853753 654.853753 0 0 1 0-81.817727 26.884794 26.884794 0 0 0 6.39201-7.670412z" fill="#505050" p-id="47260"></path><path d="M89.489738 695.450687a185.030792 185.030792 0 0 1 30.681648 1.278402 40.474207 40.474207 0 0 1 14.062422 8.948814c7.690866-11.255051 17.066667-12.960439 28.124844-5.113608 1.705388 28.124844 1.705388 56.249688 0 84.374531-4.456509 23.202996-18.518931 35.56003-42.187266 37.073658-19.533983 4.195715-37.004624 0.360509-52.414482-11.505618 0.230112-17.289109 7.473538-21.124315 21.732834-11.505618 11.078632 1.705388 22.15982 1.705388 33.238452 0 10.252784-6.011046 14.08799-14.95986 11.505618-26.846442-23.054702 18.572624-44.360549 16.869793-63.9201-5.113607-16.642237-30.502672-10.250227-54.365323 19.17603-71.590512z" fill="#4F4F4F" p-id="47261"></path><path d="M104.830562 715.905119c30.505228 1.907376 38.17564 15.969798 23.011236 42.187266-26.61633 8.332624-38.97592-1.470162-37.073658-29.403246a96.708554 96.708554 0 0 1 14.062422-12.78402z" fill="#F6F6F6" p-id="47262"></path><path d="M186.64829 695.450687c10.695111-1.67215 17.938537 2.587486 21.732834 12.78402 4.379805-11.602777 12.477203-15.437983 24.289638-11.505618 6.818996 7.670412 6.818996 15.340824 0 23.011236-11.774082 1.828115-19.868924 8.220125-24.289638 19.17603l-2.556804 46.022471c-1.938057 6.161898-6.20025 8.718702-12.78402 7.670412-6.58377 1.04829-10.845963-1.508514-12.78402-7.670412a655.147785 655.147785 0 0 1 0-81.817727c1.784649-3.045154 3.914467-5.601958 6.39201-7.670412zM258.238801 695.450687c17.618936-1.531526 34.665149 0.600849 51.13608 6.39201l11.505618 11.505618c4.119011 23.604414 4.972984 47.467066 2.556804 71.590511a24.172025 24.172025 0 0 1-3.835206 6.39201c-9.472959 3.126971-17.143371 0.997154-23.011236-6.39201-18.194217 13.065268-36.091845 13.065268-53.692883 0-11.965843-18.040809-9.409039-33.808619 7.670412-47.300873 15.195086-4.548554 30.53591-4.975541 46.022471-1.278402 1.344879-8.457908-2.063341-13.995945-10.227216-16.619226a81.050687 81.050687 0 0 0-31.960049 1.278402c-10.917553-1.85624-13.901343-7.821263-8.948814-17.897628a80.892165 80.892165 0 0 1 12.784019-7.670412zM680.111461 695.450687c13.663561-0.424429 27.298996 0.002557 40.908864 1.278402 9.117563 1.789763 16.363546 6.476385 21.732834 14.062422a306.346027 306.346027 0 0 1 2.556804 76.704119c-9.253074 7.268994-17.774901 6.417578-25.56804-2.556804-15.857298 11.802207-32.476524 13.080609-49.857678 3.835206-10.692554-12.699645-12.824929-26.762067-6.39201-42.187265 4.425828-5.412754 9.966422-9.24796 16.619226-11.505618a141.462851 141.462851 0 0 1 40.908864 1.278402c0.823291-5.681218-0.882097-10.370397-5.113608-14.062422a56.520709 56.520709 0 0 0-19.17603-3.835206c-8.120409 1.465049-16.217808 1.892035-24.289638 1.278402-8.168989-11.602777-5.612185-19.700175 7.670412-24.289638z" fill="#4F4F4F" p-id="47263"></path><path d="M769.5996 695.450687c10.779486-1.55198 18.025468 2.710212 21.732834 12.78402 4.379805-11.602777 12.477203-15.437983 24.289638-11.505618 9.109893 13.52038 5.699116 22.042207-10.227216 25.56804l-11.505618 11.505618a289.289588 289.289588 0 0 0-5.113608 51.136079c-1.938057 6.161898-6.20025 8.718702-12.78402 7.670412-6.58377 1.04829-10.845963-1.508514-12.784019-7.670412a654.853753 654.853753 0 0 1 0-81.817727 26.884794 26.884794 0 0 0 6.392009-7.670412z" fill="#4E4E4E" p-id="47264"></path><path d="M268.466017 751.700375a155.788624 155.788624 0 0 1 28.124844 1.278402c4.03208 8.902792 1.475276 15.719231-7.670412 20.454431-22.295331 5.438322-29.114327-1.80766-20.454432-21.732833z" fill="#F8F8F8" p-id="47265"></path><path d="M695.452285 749.143571a54.564754 54.564754 0 0 1 23.011236 3.835206c4.740315 9.526652 2.183511 16.343091-7.670412 20.454431-8.930916 2.567031-17.025758 1.288629-24.289638-3.835206-3.119301-9.697958-0.135511-16.516954 8.948814-20.454431z" fill="#F2F2F2" p-id="47266"></path></svg>