<?xml version="1.0" standalone="no"?><!DOCTYPE svg PUBLIC "-//W3C//DTD SVG 1.1//EN" "http://www.w3.org/Graphics/SVG/1.1/DTD/svg11.dtd"><svg t="1743821888169" class="icon" viewBox="0 0 1024 1024" version="1.1" xmlns="http://www.w3.org/2000/svg" p-id="23793" xmlns:xlink="http://www.w3.org/1999/xlink" width="200" height="200"><path d="M614.4 512a102.4 102.4 0 1 1-204.8 0 102.4 102.4 0 0 1 204.8 0z" fill="#F82E52" p-id="23794"></path><path d="M636.16 261.845333c29.909333 1.408 46.165333 6.4 57.045333 10.666667 14.336 5.546667 24.576 12.202667 35.328 22.954667 10.752 10.709333 17.365333 20.949333 22.954667 35.328 4.266667 10.88 9.258667 27.093333 10.666667 57.088 1.450667 32.341333 1.706667 42.069333 1.706666 124.117333 0 82.048-0.384 91.776-1.706666 124.16-1.408 29.909333-6.4 46.165333-10.666667 57.045333a95.701333 95.701333 0 0 1-22.954667 35.328 95.701333 95.701333 0 0 1-35.328 22.954667c-10.88 4.266667-27.136 9.258667-57.088 10.666667-32.341333 1.450667-42.069333 1.706667-124.16 1.706666-82.005333 0-91.733333-0.384-124.074666-1.706666-29.994667-1.408-46.208-6.4-57.088-10.666667a95.701333 95.701333 0 0 1-35.328-22.954667 95.701333 95.701333 0 0 1-22.997334-35.328c-4.266667-10.88-9.216-27.136-10.624-57.088-1.493333-32.341333-1.706667-42.069333-1.706666-124.16 0-82.005333 0.341333-91.733333 1.706666-124.074666 1.408-29.994667 6.4-46.208 10.666667-57.088 5.546667-14.378667 12.202667-24.618667 22.954667-35.328 10.709333-10.752 20.949333-17.365333 35.328-22.997334 10.88-4.266667 27.093333-9.216 57.088-10.624 32.341333-1.493333 42.069333-1.706667 124.117333-1.706666 82.048 0 91.776 0.213333 124.16 1.706666zM354.218667 512a157.738667 157.738667 0 1 0 315.477333 0 157.738667 157.738667 0 0 0-315.477333 0z m358.656-163.968a36.821333 36.821333 0 1 1-73.685334 0 36.821333 36.821333 0 0 1 73.685334 0z" fill="#F82E52" p-id="23795"></path><path d="M1024 512c0 282.752-229.248 512-512 512S0 794.752 0 512 229.248 0 512 0s512 229.248 512 512zM310.826667 220.885333a150.613333 150.613333 0 0 0-54.442667 35.498667 150.186667 150.186667 0 0 0-35.498667 54.314667c-7.594667 19.456-12.714667 41.813333-14.208 74.538666-1.493333 32.725333-1.877333 43.221333-1.877333 126.634667s0.384 93.866667 1.877333 126.634667c1.493333 32.725333 6.741333 55.04 14.208 74.538666 7.893333 20.224 18.346667 37.333333 35.498667 54.442667a150.613333 150.613333 0 0 0 54.442667 35.456c19.456 7.637333 41.813333 12.757333 74.538666 14.250667 32.725333 1.493333 43.221333 1.877333 126.634667 1.877333s93.866667-0.384 126.634667-1.877333c32.682667-1.493333 55.04-6.741333 74.538666-14.250667a150.613333 150.613333 0 0 0 54.442667-35.413333 150.613333 150.613333 0 0 0 35.456-54.485334c7.637333-19.498667 12.757333-41.813333 14.250667-74.538666 1.493333-32.725333 1.877333-43.221333 1.877333-126.634667s-0.384-93.909333-1.877333-126.634667c-1.493333-32.725333-6.741333-55.04-14.250667-74.538666a151.381333 151.381333 0 0 0-35.328-54.314667 150.613333 150.613333 0 0 0-54.442667-35.498667c-19.498667-7.594667-41.813333-12.714667-74.581333-14.208-32.682667-1.493333-43.178667-1.877333-126.592-1.877333s-93.909333 0.384-126.634667 1.877333c-32.853333 1.365333-55.210667 6.613333-74.666666 14.208z" fill="#F82E52" p-id="23796"></path></svg>