<?xml version="1.0" standalone="no"?><!DOCTYPE svg PUBLIC "-//W3C//DTD SVG 1.1//EN" "http://www.w3.org/Graphics/SVG/1.1/DTD/svg11.dtd"><svg t="1743822267908" class="icon" viewBox="0 0 1024 1024" version="1.1" xmlns="http://www.w3.org/2000/svg" p-id="48281" xmlns:xlink="http://www.w3.org/1999/xlink" width="200" height="200"><path d="M798.72 276.48H665.6v389.12h81.92V512h40.96C860.16 512 921.6 460.8 921.6 399.36c0-71.68-61.44-122.88-122.88-122.88z m0 153.6h-51.2v-71.68h40.96c20.48 0 40.96 20.48 40.96 40.96 10.24 20.48-10.24 30.72-30.72 30.72z m-296.96-71.68c20.48 0 40.96 20.48 40.96 40.96h81.92c0-61.44-61.44-122.88-122.88-122.88s-133.12 51.2-133.12 122.88c0 61.44 61.44 112.64 133.12 112.64 20.48 0 40.96 20.48 40.96 40.96s-20.48 40.96-40.96 40.96-40.96-20.48-40.96-40.96h-92.16c0 61.44 61.44 122.88 122.88 122.88S624.64 614.4 624.64 552.96s-61.44-122.88-122.88-122.88c-20.48 0-40.96-20.48-40.96-40.96s10.24-30.72 40.96-30.72zM245.76 552.96c0 20.48-20.48 40.96-40.96 40.96s-40.96-20.48-40.96-40.96V512H81.92v40.96c0 61.44 51.2 112.64 122.88 112.64S327.68 614.4 327.68 552.96V276.48h-81.92v276.48z" fill="#78A84A" p-id="48282"></path></svg>