<?xml version="1.0" standalone="no"?><!DOCTYPE svg PUBLIC "-//W3C//DTD SVG 1.1//EN" "http://www.w3.org/Graphics/SVG/1.1/DTD/svg11.dtd"><svg t="1743821764274" class="icon" viewBox="0 0 1024 1024" version="1.1" xmlns="http://www.w3.org/2000/svg" p-id="15030" xmlns:xlink="http://www.w3.org/1999/xlink" width="200" height="200"><path d="M489 525.3c28-6.8 68.5-10.4 106.8-4.8-12.2-25.8-41.8-89.8-54.3-116.8L489 525.3z" fill="#CC6600" p-id="15031"></path><path d="M512 92C280 92 92 280 92 512s188 420 420 420 420-188 420-420S744 92 512 92z m289.5 285.1l-0.9 1.5-163.8 263.3h153.1l-9.6 38.8h-193v-27.5l49.3-78.9c-8.7-8.2-30.7-15.9-63.9-16.1-22.2-0.1-65.5 3.2-109.6 27L421.7 681l-199.2-0.4v-331h38v292.3h132.6L524.6 343h33.8l86.9 191.2c4.3 2 8.3 4.1 12.1 6.4L752 388.4H595l-9-45.4h215.4l0.1 34.1z" fill="#CC6600" p-id="15032"></path></svg>