<?xml version="1.0" encoding="UTF-8"?> <svg xmlns="http://www.w3.org/2000/svg" width="628" height="160" fill="none"><path fill="white" d="M88.235 108.587c-3.369-2.191-4.387-4.32-4.68-5.203l-.112-.427-.019.022c-.155.177-1.301 1.39-3.498 1.443v.005h-.019l-.01-.001h-.007l-.037-.002-.044.002-.029.001v-.005c-2.198-.054-3.343-1.266-3.498-1.443l-.019-.022-.112.427c-.293.883-1.311 3.013-4.68 5.203-8.86 5.762-9.355 11.574-9.382 12.228.197-8.964 1.986-14.469 4.222-17.858l.001.002c2.696-4.083 6.042-5.093 8.04-5.376 2.997-.423 4.906.995 5.501 1.524.595-.529 2.505-1.947 5.501-1.524 1.999.283 5.345 1.293 8.04 5.376l.002-.002c2.236 3.388 4.024 8.892 4.222 17.855-.029-.663-.532-6.468-9.383-12.225Z"></path><path fill="white" d="M88.32 124.178a32.713 32.713 0 0 1-2.242 3.293c-4.103 5.287-6.3 10.796-6.3 13.556h-.01c0-2.76-2.196-8.269-6.299-13.556a32.73 32.73 0 0 1-2.241-3.293c-2.312-3.876-1.218-8.818 2.55-11.407a6.303 6.303 0 0 0 2.422-3.193c.501-1.499 1.937-2.515 3.56-2.526h.025c1.624.011 3.06 1.028 3.561 2.527a6.313 6.313 0 0 0 2.421 3.193c3.769 2.589 4.862 7.531 2.551 11.407l.001-.001ZM69.574 87.37l-1.628.739-.032.016-1.274.701c-2.165 1.301-3.07 2.447-3.07 2.447-.417-2.215-1.998-4.741-3.8-7.617-3.097-4.949-6.843-10.933-6.424-18.147l5.838-.628c-.204-.24-.394-.481-.57-.717-.25-.333.186-.748.508-.485 1.499 1.228 3.28 2.23 4.743 2.23 2.238 0 4.15-2.288 4.15-2.288s-1.845-1.87-4.15-1.87c-1.287 0-3.22.552-4.675 1.038-.378.128-.635-.385-.304-.609 1.317-.89 3.256-1.897 5.293-1.897 3.231 0 8.108 5.448 9.845 7.388l.001.001c.224.25.396.443.505.557l-.315 12.341c-2.964-.136-5.17 1.668-5.73 3.82-.56 2.152 1.09 2.978 1.09 2.978l-.001.002Z"></path><path fill="white" d="M88.46 86.202a3.41 3.41 0 0 1-2.842.505l-1.106-.294-.026-.006-.047.173c-.599 2.215-2.461 3.826-4.44 3.85-1.979-.024-3.84-1.635-4.44-3.85l-.047-.173-1.131.3a3.41 3.41 0 0 1-2.844-.505 1.655 1.655 0 0 1-.405-2.296 2.33 2.33 0 0 1 2.905-.78l2.156 1.007.434-9.222c.194-4.11.136-8.274-.17-12.379a3.825 3.825 0 0 0-3.8-3.522H62.158c-.64 0-1.277.055-1.904.16v.002a11.738 11.738 0 0 0-4.974 2.099l-.006.004-.008.006h-.002l-.004.004-.002.002-.004.002-.002.002-.003.002c-.114.084-.227.17-.339.259l-.036.03c-.102.08-.203.164-.302.25l-.036.03c-.103.09-.202.18-.302.273l-.016.015a1.18 1.18 0 0 0-.047.045c-.1.094-.199.189-.295.288 1.143-5.319 2.715-10.09 4.672-14.185 1.82-3.807 3.985-7.053 6.432-9.649 2.27-2.407 4.772-4.246 7.436-5.465 2.459-1.125 5.009-1.703 7.58-1.722h.036c2.56.024 5.098.601 7.545 1.721 2.665 1.22 5.166 3.058 7.436 5.465 2.447 2.596 4.61 5.841 6.431 9.649 1.958 4.094 3.53 8.867 4.673 14.185a12.283 12.283 0 0 0-.295-.287l-.022-.021-.011-.01-.03-.029a12.15 12.15 0 0 0-.302-.272l-.015-.013-.01-.008-.012-.01c-.099-.086-.2-.17-.302-.252l-.017-.014h-.001l-.002-.001-.009-.008-.004-.003-.004-.003a10.193 10.193 0 0 0-.338-.259l-.004-.003-.006-.004-.005-.004-.016-.012a11.721 11.721 0 0 0-4.974-2.098v-.002a11.53 11.53 0 0 0-1.904-.16H87.337a3.825 3.825 0 0 0-3.8 3.523 102.004 102.004 0 0 0-.17 12.378l.435 9.222 2.156-1.007a2.33 2.33 0 0 1 2.905.78 1.655 1.655 0 0 1-.406 2.296h.004Z"></path><path fill="white" d="M96.43 91.273s-.907-1.146-3.07-2.447l-1.275-.701-.032-.016-1.628-.74s1.65-.825 1.09-2.978c-.56-2.153-2.766-3.955-5.73-3.819 0 0-.586-12.027.368-13.024a25.4 25.4 0 0 0 .513-.568c1.638-1.846 5.944-6.695 9.155-6.695 2.036 0 3.976 1.006 5.293 1.897.331.223.074.735-.304.61-1.456-.488-3.388-1.04-4.675-1.04-2.305 0-4.15 1.87-4.15 1.87s1.912 2.29 4.15 2.29c1.462 0 3.244-1.004 4.743-2.23.322-.265.758.15.508.484-.176.236-.366.477-.57.717l5.838.628c.419 7.213-3.327 13.197-6.424 18.145-1.801 2.877-3.383 5.404-3.8 7.618v-.001Z"></path><path fill="white" fill-rule="evenodd" d="M80 0C35.817 0 0 35.817 0 80s35.817 80 80 80 80-35.817 80-80S124.183 0 80 0Zm2.775 6.562a2.859 2.859 0 0 1-2.86 2.857c-1.58 0-2.86-1.279-2.86-2.857a2.858 2.858 0 0 1 2.86-2.857c1.58 0 2.86 1.28 2.86 2.857ZM14.021 40.04c-1.58 0-2.86 1.28-2.86 2.857a2.86 2.86 0 0 0 2.86 2.857 2.86 2.86 0 0 0 2.86-2.857 2.858 2.858 0 0 0-2.86-2.857Zm2.86 75.504a2.858 2.858 0 0 1-2.86 2.857 2.859 2.859 0 0 1-2.86-2.857 2.858 2.858 0 0 1 2.86-2.856c1.58 0 2.86 1.279 2.86 2.856Zm129.099 2.857a2.858 2.858 0 0 1-2.86-2.857 2.858 2.858 0 0 1 2.86-2.856c1.58 0 2.86 1.279 2.86 2.856a2.859 2.859 0 0 1-2.86 2.857Zm-2.86-75.504a2.858 2.858 0 0 1 2.86-2.857c1.58 0 2.86 1.28 2.86 2.857a2.86 2.86 0 0 1-2.86 2.857 2.86 2.86 0 0 1-2.86-2.857Zm-84.01 64.336.015-.045a.44.44 0 0 1 .008-.02l.008-.022.014-.039v-.003a2.774 2.774 0 0 1 .053-.145l.007-.019.023-.062.08-.216.114-.248c2.53-5.344 9.296-9.855 13.35-10.882 4.046-1.025 6.967 1.128 7.068 1.204l-.01-.007.011.008v.003l.002-.002.002.002v-.003c.093-.07 3.017-2.231 7.069-1.205 4.054 1.026 10.82 5.538 13.35 10.882l.026.056.013.029.024.051.025.056.027.057.034.095.036.096.041.111.001.002.009.025.011.03.001.001.001.003.003.01.001.003.003.006.011.03.004.013.006.016.006.016.01.025.013.037.06.168v.001l-.081-.226-.007-.017c.119.381.215.853.288 1.408.667 4.876-.084 16.742-4.566 27.157-1.64 3.123-3.133 5.838-4.51 8.179a41.39 41.39 0 0 0 5.553-17.357c.154-1.772.256-3.664.3-5.68v.01l-.001.031c-.04 1.032-.368 9.519-14.17 19.354-1.192.85-.717 2.719.74 2.887l7.513.866c-1.362 2.309-2.608 4.247-3.771 5.847-.12-.065-.363-.247-.701-.5l-.001-.001c-1.489-1.112-4.812-3.596-7.458-3.596h-.002c-2.409 0-5.382 2.149-7.018 3.332l-.001.001c-.457.331-.81.586-1.017.697-1.15-1.586-2.381-3.503-3.723-5.779l7.514-.866c1.456-.167 1.931-2.037.739-2.887-13.802-9.836-14.13-18.322-14.17-19.354v-.028l-.001-.014c.044 2.016.147 3.907.3 5.68a41.38 41.38 0 0 0 5.544 17.342c-1.373-2.337-2.862-5.047-4.5-8.163-4.481-10.414-5.233-22.279-4.566-27.156.072-.555.17-1.027.288-1.409l-.046.124Zm0 0-.043.118v-.002l.042-.116ZM38.487 43.324c2.779-2.817 8.507-8.901 13.84-16.296.273-.378.546-.747.82-1.106.353-.462.695-.93 1.034-1.403L18.467 41.697a4.592 4.592 0 0 1 .139 1.627h19.882Zm103.935-3.348c-10.805-16.573-28.046-28.571-48.18-32.469l9.642 14.204 38.386 18.461-.007.01-.002.004-.002.002-.001.002c.053-.073.108-.144.164-.214Zm-36.604-15.457 1.034 1.403c.273.36.547.728.82 1.106 5.333 7.394 11.06 13.478 13.84 16.296h19.883a4.648 4.648 0 0 1 .138-1.628l-35.715-17.177Zm23.868 93.316-2.576 6.399 14.523-7.168.005.014a.134.134 0 0 0 .007.018l.009.025.011.028a4.577 4.577 0 0 1-.264-2.102c-24.326 6.223-25.08-44.944-25.089-45.653v.014c-.318 40.489 13.888 45.933 13.888 45.933-21.243-4.577-19.982-23.376-18.978-38.35.2-2.98.39-5.81.39-8.346 0-15.27-9.101-25.78-9.101-25.78a43.571 43.571 0 0 0 9.103 4.431l.001.001.001.002.002.005.004.006.003.006h.001l.005.009.008.014c-.007-.012-.013-.024-.021-.035l-.001-.003-.002-.004a42.85 42.85 0 0 0 5.907 1.61c.202.036.401.07.599.103l.004.01c3.394.612 5.557.554 5.557.554s3.027 7.25 4.268 20.447l.029.305.057.615 14.937-24.565a4.602 4.602 0 0 1-1.081-1.363h-18.672c-11.013 0-25.063-9.923-32.085-14.882l-.008-.006c-.51-.36-.984-.695-1.417-.997-.146-.103-.29-.202-.433-.3l-.003-.001c-.237-.16-.467-.311-.695-.458-4.056-2.603-6.654-2.982-7.785-2.991v-7.198c2.745.179 11.243.94 22.055 11.551 0 0-9.366-12.84-22.055-12.772v-4.263c8.56.679 15.628 2.752 21.713 9.283L92.231 7.14a74.713 74.713 0 0 0-7.721-.866 4.602 4.602 0 0 1-4.595 4.884 4.602 4.602 0 0 1-4.596-4.874 74.713 74.713 0 0 0-7.55.855L57.49 21.98c6.085-6.53 13.153-8.604 21.713-9.283v4.263c-12.689-.067-22.055 12.772-22.055 12.772 10.812-10.61 19.31-11.372 22.055-11.55v7.197a8.402 8.402 0 0 0-.53.028h-.015l-.008.002h-.008c-1.464.14-4.25.849-8.354 3.719-.434.303-.91.64-1.423 1.002-7.022 4.959-21.074 14.883-32.087 14.883H18.106c-.271.521-.639.983-1.08 1.363l14.936 24.566.018-.195.02-.203.031-.338.017-.185c1.241-13.196 4.268-20.447 4.268-20.447s2.163.058 5.557-.554l-.006.014-.003.007-.004.01-.006.015-.003.006.012-.029.004-.009.003-.007.004-.008.003-.01c.198-.032.397-.066.6-.102a42.843 42.843 0 0 0 5.907-1.61 43.63 43.63 0 0 0 9.103-4.432s-9.055 10.458-9.1 25.666v.057l-.001.031v.027c0 2.535.19 5.364.39 8.345 1.004 14.974 2.265 33.772-18.978 38.35 0 0 14.206-5.444 13.888-45.932v-.014c-.009.708-.763 51.875-25.088 45.653a4.561 4.561 0 0 1-.258 2.083l.004-.012.005-.011a.757.757 0 0 1 .016-.044l14.543 7.178-2.571-6.438a35.677 35.677 0 0 0 4.67-1.34c2.085-.761 3.984-1.702 5.68-2.817a22.253 22.253 0 0 0 2.906-2.262 22.157 22.157 0 0 0 4.01-4.988h.003s-1.891 13.613 1.462 25.82l14.874 7.342c-.42-.8-.656-1.279-.663-1.295-6.884-13.234-10.38-24.524-10.39-33.557-.01-8.431 3.027-12.513 4.838-14.196 1.508-1.402 3.027-1.909 3.569-1.576.692.425-1.718 6.6-3.09 9.807l.048.024c2.372-3.847 7.817-7.501 10.389-9.087l.068-.046c.59-.404 4.21-2.886 7.48.78 1.716 1.926 3.565 1.838 3.658 1.832h.003c.093.006 1.942.094 3.659-1.832 3.266-3.663 6.883-1.188 7.477-.78l.033.021.013.01.024.015c2.572 1.586 8.017 5.24 10.389 9.087l.047-.024c-1.371-3.206-3.781-9.381-3.089-9.807.542-.333 2.061.174 3.569 1.576 1.811 1.683 4.848 5.765 4.838 14.196-.011 9.033-3.506 20.323-10.39 33.557-.008.017-.282.573-.767 1.491l15.136-7.47a.53.53 0 0 1 .017-.06c3.372-12.201 1.467-25.799 1.467-25.799h.004a22.163 22.163 0 0 0 4.042 4.989 22.481 22.481 0 0 0 2.93 2.262c1.71 1.115 3.623 2.056 5.726 2.817 1.478.535 3.049.983 4.707 1.34l.003.001Zm-87.853-68.72.016-.04-.016.04Zm46.715 102.043 1.889-2.655a89.834 89.834 0 0 0 3.805-6.16l15.867-7.831c-3.026 8.906-9.225 16.516-21.561 16.646Zm58.277-40.134v-63.32c4.876 9.893 7.616 21.027 7.616 32.8 0 10.987-2.386 21.417-6.668 30.804a4.543 4.543 0 0 0-.951-.284h.003Zm-1.693.001a4.572 4.572 0 0 0-2.043.94c-11.107-10.295-13.543-26.026-14.78-38.21l16.128-26.523c.224.08.457.142.695.186v63.607ZM65.758 7.505C45.623 11.4 28.382 23.402 17.577 39.974c.053.066.103.132.153.2L56.114 21.71l9.644-14.207ZM17.735 40.18l-.005-.006.005.006Zm0 .002.007.008-.006-.008Zm-5.51 71.125c-4.28-9.386-6.667-19.816-6.667-30.803 0-11.773 2.74-22.907 7.616-32.801v63.32h.003a4.54 4.54 0 0 0-.951.284Zm3.338-64.077L31.69 73.754h-.001c-1.237 12.185-3.673 27.917-14.78 38.212a4.577 4.577 0 0 0-2.042-.94V47.418c.24-.044.472-.106.696-.187Zm126.892 71.27c.29.344.629.646 1.006.894h.002a74.798 74.798 0 0 1-24.172 24.282l-.002-.001-.001-.002-.001-.001-.001-.001 6.878-17.083 16.319-8.054-.001-.002-.002-.001-.003-.004a.03.03 0 0 1-.005-.007l-.002-.002-.015-.018Zm-124.936.033 16.33 8.059 6.81 17.049-.002.001a74.787 74.787 0 0 1-24.117-24.248 4.615 4.615 0 0 0 1.004-.892l-.004.005-.012.015-.004.004-.005.007Zm62.347-21.805a.1.1 0 0 0-.006.003l-.004.003-.001.002v-.002h.001l.002-.001.002-.002h.001l.002-.002.003-.001Zm-8.717 54.4a62.247 62.247 0 0 1-1.881-2.626 90.46 90.46 0 0 1-3.92-6.362l-15.604-7.701c2.997 8.924 9.148 16.558 21.405 16.689Z" clip-rule="evenodd"></path><path fill="white" d="M201 107.13V52.852h8.689V99.48h23.696v7.65H201Zm57.563.871c-3.977 0-7.504-.897-10.601-2.692-3.043-1.848-5.421-4.318-7.136-7.428-1.714-3.154-2.576-6.681-2.576-10.564s.862-7.508 2.576-10.564c1.768-3.057 4.12-5.465 7.064-7.215 2.944-1.795 6.283-2.692 10.008-2.692 2.989 0 5.664.506 8.025 1.528 2.361 1.022 4.344 2.426 5.96 4.23a17.882 17.882 0 0 1 3.68 6.05c.88 2.283 1.329 4.709 1.329 7.286 0 .63-.027 1.288-.072 1.963a10.135 10.135 0 0 1-.296 1.893h-31.721v-6.557h27.008l-3.976 2.985c.494-2.381.323-4.496-.512-6.335-.79-1.893-2.01-3.376-3.68-4.443-1.616-1.12-3.536-1.679-5.745-1.679-2.208 0-4.173.56-5.888 1.68-1.714 1.066-3.043 2.62-3.976 4.664-.934 1.99-1.302 4.416-1.104 7.286-.242 2.674.126 5.002 1.104 6.992 1.032 1.99 2.45 3.545 4.272 4.665 1.867 1.119 3.977 1.679 6.328 1.679 2.352 0 4.444-.533 6.113-1.6 1.715-1.065 3.07-2.451 4.048-4.148l6.768 3.278c-.79 1.848-2.011 3.519-3.68 5.029-1.616 1.457-3.581 2.621-5.888 3.501-2.262.826-4.74 1.235-7.432 1.235v-.027Zm45.651 0c-3.823 0-7.333-.897-10.528-2.692a20.374 20.374 0 0 1-7.504-7.357c-1.867-3.11-2.801-6.628-2.801-10.564s.934-7.508 2.801-10.564c1.867-3.11 4.362-5.536 7.504-7.286 3.141-1.795 6.651-2.692 10.528-2.692 3.878 0 7.432.897 10.529 2.692 3.142 1.75 5.619 4.176 7.432 7.286 1.867 3.056 2.801 6.583 2.801 10.564 0 3.98-.934 7.525-2.801 10.635a20.51 20.51 0 0 1-7.504 7.357c-3.141 1.75-6.624 2.621-10.448 2.621h-.009Zm0-7.65c2.352 0 4.443-.56 6.257-1.68 1.813-1.119 3.24-2.647 4.272-4.593 1.077-1.99 1.616-4.229 1.616-6.699 0-2.47-.539-4.691-1.616-6.628-1.032-1.946-2.45-3.474-4.272-4.594-1.814-1.12-3.905-1.679-6.257-1.679-2.351 0-4.389.56-6.256 1.68-1.813 1.119-3.267 2.647-4.344 4.593-1.033 1.946-1.544 4.15-1.544 6.628 0 2.479.511 4.709 1.544 6.7 1.077 1.945 2.531 3.473 4.344 4.593 1.867 1.12 3.949 1.679 6.256 1.679Zm28.876 6.779V67.717h7.953v7.72l-.961-1.021c.978-2.48 2.549-4.345 4.712-5.607 2.155-1.315 4.659-1.963 7.504-1.963 2.846 0 5.547.63 7.8 1.892a13.7 13.7 0 0 1 5.296 5.242c1.275 2.23 1.912 4.807 1.912 7.721v25.429h-8.24V83.887c0-1.99-.368-3.67-1.104-5.029-.736-1.404-1.786-2.479-3.168-3.207-1.329-.773-2.846-1.164-4.56-1.164-1.715 0-3.267.39-4.641 1.164-1.328.728-2.351 1.795-3.087 3.207-.736 1.404-1.104 3.083-1.104 5.03v23.242h-8.321.009Zm55.049.871c-2.701 0-5.08-.462-7.136-1.386-2.01-.968-3.581-2.283-4.712-3.936-1.131-1.697-1.696-3.687-1.696-5.97 0-2.133.466-4.061 1.4-5.758.978-1.697 2.477-3.137 4.488-4.3 2.01-1.164 4.542-1.99 7.584-2.48l13.841-2.256V88.4l-12.216 2.114c-2.208.391-3.824 1.093-4.856 2.115-1.032.969-1.544 2.23-1.544 3.785 0 1.555.566 2.745 1.697 3.714 1.176.924 2.675 1.386 4.488 1.386 2.253 0 4.218-.489 5.888-1.457 1.714-.969 3.043-2.257 3.976-3.865.934-1.653 1.4-3.474 1.4-5.464v-10.13c0-1.945-.736-3.518-2.208-4.735-1.427-1.262-3.339-1.892-5.744-1.892-2.208 0-4.147.586-5.817 1.75a10.245 10.245 0 0 0-3.608 4.371l-6.92-3.42c.736-1.946 1.938-3.643 3.608-5.1 1.669-1.502 3.608-2.675 5.816-3.501 2.253-.826 4.641-1.235 7.136-1.235 3.142 0 5.915.586 8.321 1.75 2.45 1.164 4.344 2.79 5.664 4.878 1.373 2.044 2.064 4.425 2.064 7.144v26.521h-7.952v-7.143l1.696.222a14.704 14.704 0 0 1-3.608 4.149c-1.428 1.164-3.07 2.062-4.928 2.692-1.813.631-3.851.951-6.113.951h-.009Zm30.626-.871V67.717h7.953v7.943l-.736-1.164c.879-2.577 2.307-4.416 4.272-5.536 1.966-1.163 4.318-1.75 7.064-1.75h2.433v7.508h-3.456c-2.746 0-4.981.853-6.696 2.55-1.669 1.653-2.504 4.034-2.504 7.143v22.728h-8.321l-.009-.009Zm45.068.871c-3.823 0-7.261-.897-10.304-2.692-2.989-1.848-5.377-4.318-7.136-7.428-1.714-3.11-2.576-6.602-2.576-10.493 0-3.892.88-7.384 2.648-10.493 1.768-3.11 4.147-5.562 7.136-7.357s6.382-2.692 10.161-2.692c3.186 0 6.013.63 8.464 1.892 2.45 1.262 4.389 3.012 5.816 5.242l-1.247 1.893v-23.9h8.24v55.148h-7.872v-8.014l.96 1.528c-1.373 2.382-3.339 4.203-5.888 5.465-2.549 1.261-5.35 1.892-8.393 1.892l-.009.009Zm.808-7.65c2.307 0 4.362-.56 6.185-1.68 1.867-1.119 3.312-2.647 4.344-4.593 1.077-1.99 1.616-4.229 1.616-6.699 0-2.47-.539-4.691-1.616-6.628-1.032-1.946-2.477-3.474-4.344-4.594-1.814-1.12-3.878-1.679-6.185-1.679-2.307 0-4.389.56-6.256 1.68-1.867 1.119-3.312 2.647-4.344 4.593-1.033 1.946-1.544 4.15-1.544 6.628 0 2.479.511 4.709 1.544 6.7 1.032 1.945 2.45 3.473 4.272 4.593 1.867 1.12 3.977 1.679 6.328 1.679Zm49.314 7.65c-3.824 0-7.333-.897-10.529-2.692a20.382 20.382 0 0 1-7.504-7.357c-1.867-3.11-2.8-6.628-2.8-10.564s.933-7.508 2.8-10.564c1.867-3.11 4.363-5.536 7.504-7.286 3.142-1.795 6.651-2.692 10.529-2.692s7.432.897 10.529 2.692c3.141 1.75 5.619 4.176 7.432 7.286 1.867 3.056 2.8 6.583 2.8 10.564 0 3.98-.933 7.525-2.8 10.635a20.51 20.51 0 0 1-7.504 7.357c-3.142 1.75-6.624 2.621-10.448 2.621h-.009Zm0-7.65c2.352 0 4.443-.56 6.256-1.68 1.813-1.119 3.241-2.647 4.273-4.593 1.077-1.99 1.615-4.229 1.615-6.699 0-2.47-.538-4.691-1.615-6.628-1.032-1.946-2.451-3.474-4.273-4.594-1.813-1.12-3.904-1.679-6.256-1.679-2.352 0-4.389.56-6.256 1.68-1.813 1.119-3.267 2.647-4.345 4.593-1.032 1.946-1.543 4.15-1.543 6.628 0 2.479.511 4.709 1.543 6.7 1.078 1.945 2.532 3.473 4.345 4.593 1.867 1.12 3.949 1.679 6.256 1.679Zm32.556 6.779v-9.471h8.464v9.471h-8.464ZM563.984 107.139l19.28-54.278h10.744l19.281 54.278h-9.272l-4.192-12.163H577.52l-4.273 12.163h-9.272.009Zm16.049-19.813h17.153l-9.712-28.414h2.432l-9.864 28.414h-.009Zm38.964 19.813V67.725h8.321v39.414h-8.321Zm0-44.807v-9.471h8.321v9.471h-8.321Z"></path></svg> 