<?xml version="1.0" standalone="no"?><!DOCTYPE svg PUBLIC "-//W3C//DTD SVG 1.1//EN" "http://www.w3.org/Graphics/SVG/1.1/DTD/svg11.dtd"><svg t="1743822615439" class="icon" viewBox="0 0 1536 1024" version="1.1" xmlns="http://www.w3.org/2000/svg" p-id="57393" xmlns:xlink="http://www.w3.org/1999/xlink" width="300" height="200"><path d="M1464.39424 597.88288c61.30432 91.55584 34.26304 217.1648-60.4032 280.5504-94.66368 63.39072-221.09184 40.5504-282.4064-51.00544l-274.9696-410.6752c-61.31456-91.55328-34.26304-217.15456 60.3904-280.54784 94.6688-63.39328 221.10464-40.5504 282.4192 51.00544z" fill="#95C748" p-id="57394"></path><path d="M1237.01504 266.42944c48.70656 95.55712-236.3648 476.5568-258.8928 502.54336-14.1056 16.27392-23.86432 36.24448-36.16768 54.15936-87.59552 127.4368-249.91744 133.2992-344.50688 11.10528-57.58464-74.41152-110.656-152.32768-168.70656-226.35776-88.2688-112.55808-186.27584-131.19232-321.88416-55.8336 52.10368-80.448 97.536-150.67392 143.0272-220.84352 27.584-42.55232 54.10304-85.85472 83.15648-127.3728 87.3472-124.82816 253.78048-126.38464 345.6512-4.76416 59.84512 79.232 119.59552 158.656 182.3488 235.5712 62.80448 76.98944 145.8176 102.72512 238.62528 67.36384 90.04288-34.31936 136.19456-104.2048 132.18048-203.3408-0.27136-6.87616 2.112-13.85984 5.16864-32.2304z" fill="#3152A0" p-id="57395"></path><path d="M33.71776 707.45088a211.3152 211.3152 0 1 0 422.6304 0 211.3152 211.3152 0 1 0-422.6304 0z" fill="#35BFC0" p-id="57396"></path><path d="M816.86528 304.39168a211.32544 211.32544 0 1 0 422.65088 0 211.32544 211.32544 0 1 0-422.65088 0z" fill="#F38334" p-id="57397"></path></svg>