<svg xmlns="http://www.w3.org/2000/svg"  viewBox="0 0 48 48" width="144px" height="144px"><linearGradient id="_0YcOSEXAapYz6yw4x_pLa" x1="15.536" x2="17.288" y1="14.672" y2="16.722" gradientUnits="userSpaceOnUse"><stop offset="0" stop-color="#e91e63"/><stop offset="1" stop-color="#d11e63"/></linearGradient><polygon fill="url(#_0YcOSEXAapYz6yw4x_pLa)" points="13.869,18.716 12.716,17.082 18.955,12.678 20.108,14.312"/><rect width="10.546" height="2" x="11.689" y="16.73" fill="#ff8d00" transform="rotate(-35.217 16.962 17.73)"/><polygon fill="#feee02" points="13.042,24.16 11.888,22.527 22.113,15.292 23.266,16.926"/><polygon fill="#008125" points="11.82,27.465 10.667,25.832 22.628,17.364 23.781,18.998"/><polygon fill="#004eff" points="11.789,29.939 10.635,28.305 24.235,18.627 25.388,20.261"/><polygon fill="#760786" points="15.906,29.46 14.752,27.826 25.639,20.063 26.793,21.697"/><g><linearGradient id="_0YcOSEXAapYz6yw4x_pLb" x1="20.001" x2="38" y1="19.5" y2="19.5" gradientUnits="userSpaceOnUse"><stop offset="0" stop-color="#41474a"/><stop offset="1" stop-color="#323538"/></linearGradient><path fill="url(#_0YcOSEXAapYz6yw4x_pLb)" d="M31.066,28.359 c0.123,0.32,0.401,0.555,0.737,0.622l5,1C36.869,29.994,36.935,30,37,30c0.274,0,0.54-0.113,0.731-0.318 c0.236-0.253,0.325-0.611,0.234-0.945C34.896,17.485,22.069,9.483,21.524,9.148c-0.445-0.274-1.027-0.159-1.334,0.267 c-0.307,0.424-0.233,1.015,0.168,1.352C20.417,10.816,26.239,15.806,31.066,28.359z M35.527,27.686l-2.793-0.559 c-1.818-4.63-3.751-8.234-5.485-10.955C30.402,19.119,33.828,23.112,35.527,27.686z"/><linearGradient id="_0YcOSEXAapYz6yw4x_pLc" x1="2" x2="44" y1="35" y2="35" gradientUnits="userSpaceOnUse"><stop offset="0" stop-color="#41474a"/><stop offset="1" stop-color="#323538"/></linearGradient><path fill="url(#_0YcOSEXAapYz6yw4x_pLc)" d="M43,38c-0.748,0-1.109-0.391-1.734-1.141 C40.611,36.075,39.715,35,37.996,35s-2.615,1.075-3.27,1.859C34.101,37.609,33.74,38,32.992,38c-0.553,0-0.894-0.217-1.287-0.631 c4.554-2.119,8.729-5.435,8.92-5.588c0.344-0.275,0.467-0.743,0.304-1.152c-0.163-0.409-0.572-0.66-1.014-0.625l-35,3 c-0.388,0.034-0.721,0.289-0.854,0.654s-0.042,0.775,0.232,1.05l1.316,1.316c-0.288,0.248-0.559,0.513-0.816,0.77 C4.172,37.414,3.586,38,3,38c-0.552,0-1,0.448-1,1s0.448,1,1,1c1.414,0,2.367-0.953,3.207-1.793C6.828,37.586,7.414,37,8,37 c0.746,0,1.106,0.391,1.73,1.14C10.384,38.925,11.28,40,12.998,40s2.613-1.075,3.268-1.86c0.624-0.749,0.984-1.14,1.73-1.14 c0.747,0,1.107,0.391,1.731,1.14c0.654,0.785,1.549,1.86,3.268,1.86c1.718,0,2.613-1.075,3.267-1.86 c0.624-0.749,0.984-1.14,1.729-1.14c0.523,0,0.872,0.177,1.334,0.678c0.137,0.149,0.268,0.306,0.398,0.463 C30.378,38.925,31.273,40,32.992,40c1.719,0,2.615-1.075,3.27-1.859C36.887,37.391,37.248,37,37.996,37 c0.749,0,1.109,0.391,1.734,1.141C40.385,38.925,41.281,40,43,40c0.552,0,1-0.448,1-1S43.552,38,43,38z M24.724,36.86 C24.101,37.609,23.74,38,22.995,38c-0.747,0-1.107-0.391-1.731-1.14C20.609,36.075,19.714,35,17.996,35 c-1.718,0-2.613,1.075-3.268,1.86c-0.624,0.749-0.984,1.14-1.73,1.14s-1.106-0.391-1.73-1.14C10.614,36.075,9.718,35,8,35 c-0.187,0-0.365,0.019-0.536,0.049l-0.237-0.237l29.266-2.509c-1.699,1.146-3.956,2.527-6.223,3.517 C29.735,35.378,29.016,35,27.991,35C26.273,35,25.378,36.075,24.724,36.86z"/><linearGradient id="_0YcOSEXAapYz6yw4x_pLd" x1="7" x2="29" y1="18" y2="18" gradientUnits="userSpaceOnUse"><stop offset="0" stop-color="#41474a"/><stop offset="1" stop-color="#323538"/></linearGradient><path fill="url(#_0YcOSEXAapYz6yw4x_pLd)" d="M7.293,30.293 c-0.353,0.352-0.391,0.91-0.091,1.308C7.396,31.86,7.696,32,8.001,32c0.164,0,0.331-0.041,0.483-0.125 c0.087-0.047,8.798-4.761,19.252-1.91c0.303,0.083,0.623,0.019,0.87-0.17C28.854,29.605,29,29.312,29,29 c0-0.555-0.233-13.72-20.518-24.876C8.07,3.897,7.558,3.987,7.249,4.34c-0.31,0.352-0.333,0.873-0.056,1.251 C7.621,6.176,17.549,20.037,7.293,30.293z M26.837,27.686c-6.467-1.408-12.1-0.265-15.591,0.886 c4.846-7.581,1.898-16.129-0.433-20.752C23.493,15.845,26.242,24.462,26.837,27.686z"/></g></svg>