<?xml version="1.0" standalone="no"?><!DOCTYPE svg PUBLIC "-//W3C//DTD SVG 1.1//EN" "http://www.w3.org/Graphics/SVG/1.1/DTD/svg11.dtd"><svg t="1743822739448" class="icon" viewBox="0 0 1024 1024" version="1.1" xmlns="http://www.w3.org/2000/svg" p-id="60278" xmlns:xlink="http://www.w3.org/1999/xlink" width="200" height="200"><path d="M137.74 535.72H233v138.42h-95.26z" fill="#050CB5" p-id="60279"></path><path d="M137.74 722.57h190.15V861H137.74z" fill="#050CB5" p-id="60280"></path><path d="M696.8 722.57H884V861H696.8z" fill="#050CB5" p-id="60281"></path><path d="M373.47 722.57h280.15V861H373.47z" fill="#050CB5" p-id="60282"></path><path d="M137.74 163h144.64v139.89H137.74z" fill="#050CB5" p-id="60283"></path><path d="M276.14 210.93h145.14v92H276.14z" fill="#050CB5" p-id="60284"></path><path d="M416.47 163h191v139.89h-191z" fill="#050CB5" p-id="60285"></path><path d="M601.3 210.93h145.14v92H601.3z" fill="#050CB5" p-id="60286"></path><path d="M741.62 163h144.64v139.89H741.62z" fill="#050CB5" p-id="60287"></path><path d="M279.56 535.72h234.63v138.42H279.56z" fill="#050CB5" p-id="60288"></path><path d="M555.83 535.72h192.54v138.42H555.83z" fill="#050CB5" p-id="60289"></path><path d="M789 535.72h94.3v138.42H789z" fill="#050CB5" p-id="60290"></path><path d="M137.74 347.07h190.15v142.29H137.74z" fill="#050CB5" p-id="60291"></path><path d="M696.8 347.07H884v142.29H696.8z" fill="#050CB5" p-id="60292"></path><path d="M373.47 347.07h280.15v142.29H373.47z" fill="#050CB5" p-id="60293"></path></svg>