<?xml version="1.0" standalone="no"?><!DOCTYPE svg PUBLIC "-//W3C//DTD SVG 1.1//EN" "http://www.w3.org/Graphics/SVG/1.1/DTD/svg11.dtd"><svg t="1743822181174" class="icon" viewBox="0 0 1024 1024" version="1.1" xmlns="http://www.w3.org/2000/svg" p-id="45210" xmlns:xlink="http://www.w3.org/1999/xlink" width="200" height="200"><path d="M0 1024V0h1024v1024H0zM699.306667 288.426667l-9.813334 1.28-9.386666 1.706666-8.96 2.56-8.533334 2.986667-8.533333 2.986667-8.106667 3.84-7.68 4.266666-7.253333 4.693334-7.253333 5.12-6.826667 5.546666-6.4 5.973334-5.973333 6.4-5.546667 6.826666-5.546667 7.253334-4.693333 7.253333-4.693333 8.106667-4.266667 8.106666-3.84 8.96-3.413333-9.386666-4.266667-8.96-4.266667-8.533334-5.12-8.106666-5.546666-7.253334-5.973334-6.826666-6.4-6.4-6.4-5.973334-7.253333-5.546666-7.253333-4.693334-8.106667-4.693333-7.68-3.84-8.533333-3.413333-8.533334-2.986667-8.533333-2.56-8.96-2.133333-9.386667-1.706667-9.386666-0.853333-9.386667-0.853334h-18.346667l-8.96 0.853334-8.533333 0.853333-8.533333 1.28-8.106667 2.133333-7.68 2.133334-7.68 2.56-7.68 2.986666-6.826667 3.413334-7.253333 3.413333-6.4 4.266667-6.4 4.266666-5.973333 4.693334-5.973334 5.12-5.546666 5.546666-5.12 5.546667-5.12 5.973333-4.693334 6.4-4.266666 6.826667L298.666667 362.666667V296.533333H113.066667v94.72h58.453333v250.026667H113.066667v96.426667h270.08v-96.426667H298.666667v-162.56l0.426666-8.96 1.28-8.533333 1.28-8.106667 1.706667-7.68 2.133333-7.68 2.56-6.826667 2.986667-6.826666 3.413333-5.973334 3.84-5.973333 4.693334-5.12 4.693333-4.693333 5.12-4.266667 5.973333-3.84 6.4-3.413333 6.4-2.56 7.253334-2.133334 8.106666-1.706666 8.106667-0.853334 8.96-0.426666h7.253333l6.826667 0.853333 6.826667 1.28 5.973333 1.706667 5.973333 2.133333 5.546667 2.56 5.12 2.986667 4.693333 3.84 4.266667 4.266666 4.266667 4.693334 3.413333 5.12 3.413333 5.973333 2.56 6.826667 2.56 6.826666 2.133334 8.106667 1.706666 8.106667 1.28 8.96 1.28 9.813333 0.426667 10.666667v259.84h183.466667v-96.426667H584.533333v-153.6l0.426667-8.96 0.426667-8.96 0.853333-8.533333 1.706667-8.106667 1.706666-7.68 2.133334-7.68 2.56-6.826667 2.986666-6.826666 3.413334-5.973334 3.84-5.973333 4.266666-5.12 5.12-4.693333 5.12-4.266667 5.973334-3.84 5.973333-3.413333 6.826667-2.56 7.253333-2.133334 8.106667-1.706666 8.106666-0.853334 8.96-0.426666h7.253334l6.826666 0.853333 6.826667 1.28 5.973333 1.706667 5.973334 2.133333 5.546666 2.56 5.12 2.986667 4.693334 3.84 4.266666 4.266666 3.84 4.693334 3.84 5.12 3.413334 5.973333 2.56 6.826667 2.56 6.826666 2.133333 8.106667 1.706667 8.106667 1.28 8.96 1.28 9.813333 0.426666 10.666667v259.84h183.466667v-96.426667h-58.453333v-201.386667l-0.426667-15.36-1.706667-14.08-2.56-13.653333-3.413333-12.8-4.266667-11.946667-5.12-11.093333-5.973333-10.24-6.826667-9.813333-7.68-8.533334-7.68-8.106666-8.96-6.826667-8.96-6.4-9.813333-5.546667-10.24-5.12-10.666667-3.84-10.666666-3.413333-11.52-2.56-11.093334-1.706667-11.946666-1.28h-22.186667l-9.813333 0.853334z" fill="#1296db" p-id="45211"></path></svg>