<?xml version="1.0" standalone="no"?><!DOCTYPE svg PUBLIC "-//W3C//DTD SVG 1.1//EN" "http://www.w3.org/Graphics/SVG/1.1/DTD/svg11.dtd"><svg t="1743822120959" class="icon" viewBox="0 0 1024 1024" version="1.1" xmlns="http://www.w3.org/2000/svg" p-id="41123" xmlns:xlink="http://www.w3.org/1999/xlink" width="200" height="200"><path d="M0.001598 0h1022.721598v1022.721598H0.001598V0z" fill="#FEFEFE" p-id="41124"></path><path d="M534.373633 340.054931h-163.635456v7.670412c-2.388055-2.730667-3.242027-6.138886-2.556804-10.227216 55.840599-0.846302 111.236315 0.00767 166.19226 2.556804z" fill="#FFBDAA" p-id="41125"></path><path d="M534.373633 340.054931c69.284275 11.457039 99.541493 52.365903 90.766542 122.726592-13.379755 39.272509-40.226197 63.562147-80.539326 72.868914-69.299615 5.231221-132.3683-11.814991-189.203496-51.13608a46.227016 46.227016 0 0 1-5.113608-8.948814 682.820075 682.820075 0 0 1 58.806492-3.835206l5.113608-5.113608a558.219346 558.219346 0 0 1-116.334582-75.425718c-1.853683-4.236624-0.575281-6.793428 3.835206-7.670412h122.726592c0.685223-4.08833-0.168749-7.496549-2.556804-10.227216-18.268365-5.724684-35.314577-14.246512-51.13608-25.56804v-7.670412h163.635456z" fill="#FF632E" p-id="41126"></path><path d="M544.600849 373.293383c-10.268125-3.178107-20.495341-3.178107-30.681648 0 0.283805-1.577548 1.135221-2.85595 2.556804-3.835206l14.062422-1.278402c5.867865 0.12017 10.557044 1.823001 14.062422 5.113608z" fill="#FF9471" p-id="41127"></path><path d="M544.600849 373.293383a164.287441 164.287441 0 0 1 33.238452 12.78402c-0.570167 6.683486 2.413623 10.945678 8.948814 12.78402 19.638811 39.047511 11.9684 71.43199-23.011236 97.158552-31.609768 16.455591-60.159041 12.193398-85.652934-12.78402-7.222971-8.49626-12.336579-17.87206-15.340824-28.124844a171.934841 171.934841 0 0 1 2.556804-38.35206c7.363596-24.412365 23.558392-38.901773 48.579276-43.465668 10.186307-3.178107 20.413523-3.178107 30.681648 0z" fill="#FFFAF9" p-id="41128"></path><path d="M421.874257 373.293383c2.388055 2.730667 3.242027 6.138886 2.556804 10.227216h-122.726592a1413.414032 1413.414032 0 0 1 120.169788-2.556804v-7.670412z" fill="#FFCFBF" p-id="41129"></path><path d="M577.839301 416.759051c2.958222 9.501084 2.958222 18.876884 0 28.124844a33.059476 33.059476 0 0 1-12.78402-1.278402c-4.244295-7.442856-7.225528-15.540255-8.948814-24.289638-7.299675-9.828355-17.099905-14.514976-29.403246-14.062422-5.926672-18.534272 0.465338-24.074866 19.17603-16.619226a46.380424 46.380424 0 0 0 19.17603 8.948814 75.706966 75.706966 0 0 0 12.78402 19.17603z" fill="#FF6631" p-id="41130"></path><path d="M577.839301 416.759051c3.290607 3.505378 4.993438 8.194557 5.113608 14.062422-0.12017 5.867865-1.823001 10.557044-5.113608 14.062422 2.958222-9.24796 2.958222-18.62376 0-28.124844z" fill="#FFC1AB" p-id="41131"></path><path d="M465.339925 416.759051a171.934841 171.934841 0 0 0-2.556804 38.35206c-2.935211-11.457039-3.362197-23.389643-1.278402-35.795256 0.979256-1.421583 2.257658-2.272999 3.835206-2.556804z" fill="#FF9065" p-id="41132"></path><path d="M194.318702 595.735331a142.961139 142.961139 0 0 0-51.13608 0c6.867576-3.812195 14.537988-5.515026 23.011236-5.113608 10.043126-0.117613 19.418926 1.585218 28.124844 5.113608z" fill="#6E6E6E" p-id="41133"></path><path d="M370.738177 595.735331h-40.908864c5.734911-3.354527 12.553908-5.057358 20.454432-5.113608 7.900524 0.05625 14.719521 1.759081 20.454432 5.113608z" fill="#CDCDCD" p-id="41134"></path><path d="M764.485993 595.735331c-14.471511-3.201119-28.960919-3.201119-43.465668 0 6.867576-3.812195 14.537988-5.515026 23.011236-5.113608 7.739446-0.544599 14.555885 1.158232 20.454432 5.113608z" fill="#5E5E5E" p-id="41135"></path><path d="M194.318702 595.735331c2.730667 2.388055 6.138886 3.242027 10.227216 2.556804 2.270442 6.530077 3.121858 13.349074 2.556804 20.454432h-5.113608c-1.866467-3.950262-5.274687-6.08008-10.227216-6.39201-16.655021-2.096579-32.847261-1.669593-48.579276 1.278402-3.201119 4.701963-3.201119 9.388584 0 14.062422 8.480919 1.273288 17.002747 1.700275 25.56804 1.278402 7.782911 3.863331 16.307296 5.568719 25.56804 5.113608 4.873268 2.510782 9.986876 5.067586 15.340824 7.670412 3.646002 11.255051 3.221573 22.333683-1.278402 33.238452a175.954137 175.954137 0 0 0-16.619226 7.670412 399.710282 399.710282 0 0 1-58.806492-2.556804 100.073308 100.073308 0 0 1-11.505618-5.113608 41.548065 41.548065 0 0 1 0-20.454432 49.128989 49.128989 0 0 0 16.619226 7.670412c1.066187 1.846012 2.771576 3.124414 5.113608 3.835206a185.276245 185.276245 0 0 0 43.465668 0c4.474407-4.484634 6.179795-10.025228 5.113608-16.619226l-20.454432-2.556804c-18.835975 3.265039-35.028215-1.42414-48.579276-14.062422-6.701383-20.285683 0.115056-32.645273 20.454432-37.073658a142.961139 142.961139 0 0 1 51.13608 0z" fill="#090909" p-id="41136"></path><path d="M764.485993 595.735331c17.654732-1.886921 25.325144 5.783491 23.011235 23.011236-6.563316-0.565054-12.530896-2.270442-17.897628-5.113608-16.258717-6.195136-32.450956-6.195136-48.579275 0-3.139755 3.860774-3.139755 7.69598 0 11.505618a339.812035 339.812035 0 0 0 28.124844 6.39201c9.86415 2.030102 20.091366 3.732934 30.681647 5.113608 16.782861 13.292824 16.782861 27.355246 0 42.187266a25.910652 25.910652 0 0 1-10.227216 3.835206h-48.579275l-15.340824-5.113608c-2.651406-5.722127-3.075835-11.687151-1.278402-17.897628 6.701383 3.812195 13.947366 5.517583 21.732834 5.113608 13.167541 2.942881 26.805533 3.367311 40.908864 1.278402 4.540884-4.272419 5.394856-8.959041 2.556803-14.062422a207.254532 207.254532 0 0 0-51.136079-6.39201c-8.076944-3.392879-14.041968-8.933473-17.897628-16.619226-0.485793-9.030632 1.219596-17.552459 5.113608-25.56804 3.919581-4.461623 9.033189-7.018427 15.340824-7.670412 14.504749-3.201119 28.994157-3.201119 43.465668 0z" fill="#0A0A0A" p-id="41137"></path><path d="M311.931685 611.076155h-63.920099v17.897628c19.98398 2.53635 40.438412 3.390322 61.363295 2.556804v12.78402c-20.924884-0.833518-41.379316 0.020454-61.363295 2.556804v20.454432h63.920099v15.340824h-84.374531v-86.931336h84.374531v15.340824z" fill="#0C0C0C" p-id="41138"></path><path d="M332.386117 595.735331h38.35206a145.66368 145.66368 0 0 0 12.78402 43.465668 223.454442 223.454442 0 0 0 5.113608 23.011236c0.631531 3.101403 2.336919 4.806792 5.113608 5.113608 2.35226 1.449708 3.206232-0.253124 2.556804-5.113608 5.251675-6.412464 7.808479-14.082876 7.670412-23.011236 2.776689-0.306816 4.482077-2.012205 5.113608-5.113608l5.113608-20.454432a131.851825 131.851825 0 0 1 2.556804-17.897628h38.35206v86.931336h-17.897628c0.424429-24.729408 0-49.446032-1.278402-74.147316-5.645423 5.489458-8.629213 12.308454-8.948814 20.454432a286.635625 286.635625 0 0 0-15.340824 51.13608 127.507815 127.507815 0 0 1-35.795256 2.556804 213.344839 213.344839 0 0 0-12.78402-43.465668c-0.651985-6.307635-3.208789-11.421243-7.670412-15.340824v-7.670412c0.43977-2.53635-0.414202-4.239181-2.556804-5.113608-0.153408-1.388345-1.004824-2.23976-2.556804-2.556804a539.87172 539.87172 0 0 0-2.556804 74.147316h-15.340824v-86.931336z" fill="#070707" p-id="41139"></path><path d="M478.123945 595.735331c26.434797-0.424429 52.854252 0 79.260924 1.278402 7.125813 0.73636 11.385448 4.571566 12.78402 11.505618 3.004245 9.416709 3.004245 18.792509 0 28.124844l-3.835206 7.670412c-5.46389 2.503111-10.153069 5.911331-14.062422 10.227216a10782.732784 10782.732784 0 0 1 20.454432 25.56804c-7.990012 2.503111-16.51184 3.357084-25.56804 2.556804a13659.428754 13659.428754 0 0 1-20.454432-28.124844c-8.851655-2.510782-18.227456-3.362197-28.124844-2.556804v30.681648h-20.454432v-86.931336z" fill="#0C0C0C" p-id="41140"></path><path d="M588.066517 595.735331h20.454432c-0.424429 18.769498 0 37.518542 1.278402 56.249688 0.710792 2.342032 1.989194 4.044864 3.835206 5.113608 1.135221 4.124125 3.692025 7.107915 7.670412 8.948814 18.963815 5.829513 32.599251 0.288919 40.908864-16.619226 2.533793-17.419506 3.387765-35.317134 2.556804-53.692884h17.897628c0.946017 21.484824-0.332385 42.790672-3.835206 63.9201-4.364464 10.746247-11.60789 18.416659-21.732834 23.011236h-40.908864c-14.658157-3.628105-23.606971-13.003905-26.846442-28.124844-1.278402-19.582562-1.702831-39.185578-1.278402-58.806492z" fill="#080808" p-id="41141"></path><path d="M588.066517 595.735331c7.125813-2.497998 14.796225-3.349413 23.011236-2.556804a464.724694 464.724694 0 0 0 2.556804 63.9201c-1.846012-1.068744-3.124414-2.771576-3.835206-5.113608a619.845993 619.845993 0 0 1-1.278402-56.249688h-20.454432z" fill="#CDCDCD" p-id="41142"></path><path d="M882.098976 628.973783c2.518452-10.569828 3.369868-21.651016 2.556804-33.238452h17.897628v86.931336h-17.897628c0.813064-11.587436-0.038352-22.668624-2.556804-33.238452h-53.692884v33.238452h-20.454432v-86.931336h20.454432v33.238452h53.692884z" fill="#0B0B0B" p-id="41143"></path><path d="M682.668265 595.735331h-17.897628c0.830961 18.37575-0.023011 36.273378-2.556804 53.692884v-56.249688c7.37638-0.782382 14.195376 0.069034 20.454432 2.556804z" fill="#616161" p-id="41144"></path><path d="M902.553408 595.735331h-17.897628c0.813064 11.587436-0.038352 22.668624-2.556804 33.238452v-35.795256c7.37638-0.782382 14.195376 0.069034 20.454432 2.556804z" fill="#787878" p-id="41145"></path><path d="M204.545918 598.292135c3.190891 2.132375 4.89628 5.540594 5.113608 10.227216-0.025568 3.950262-0.879541 7.358482-2.556804 10.227216 0.565054-7.105358-0.286362-13.924355-2.556804-20.454432z" fill="#717171" p-id="41146"></path><path d="M143.182622 613.632959c15.732015-2.947995 31.924255-3.374981 48.579276-1.278402 4.952529 0.31193 8.360749 2.441748 10.227216 6.39201-19.186257-4.622702-38.789273-6.325533-58.806492-5.113608z" fill="#707070" p-id="41147"></path><path d="M311.931685 611.076155c-19.98398 2.53635-40.438412 3.390322-61.363295 2.556804v15.340824h-2.556804v-17.897628h63.920099z" fill="#818181" p-id="41148"></path><path d="M769.5996 613.632959h-48.579275c16.12832-6.195136 32.320559-6.195136 48.579275 0z" fill="#7E7E7E" p-id="41149"></path><path d="M352.840549 611.076155l-5.113608 71.590512c-0.848859-24.775431 0.005114-49.489498 2.556804-74.147316 1.55198 0.317044 2.403396 1.168459 2.556804 2.556804z" fill="#444444" p-id="41150"></path><path d="M498.578377 613.632959c18.858986-0.577838 37.60803 0.276135 56.249688 2.556804 1.383231 8.059046-1.173573 14.451056-7.670412 19.17603-16.171785 1.278402-32.364025 1.702831-48.579276 1.278402v-23.011236z" fill="#EDEDED" p-id="41151"></path><path d="M329.829313 595.735331h2.556804v86.931336h15.340824l5.113608-71.590512c2.142602 0.874427 2.996574 2.577258 2.556804 5.113608-2.538906 22.545898-3.392879 45.557134-2.556804 69.033708h-25.56804c-0.838632-30.285343 0.012784-60.115576 2.556804-89.48814z" fill="#A2A2A2" p-id="41152"></path><path d="M455.112709 682.666667c-6.259056 2.48777-13.078052 3.339186-20.454432 2.556804 0.424429-23.026577 0-46.037813-1.278402-69.033708-0.253124 5.504799-2.385498 9.764434-6.39201 12.78402 0.3196-8.145978 3.303391-14.964974 8.948814-20.454432 1.278402 24.701283 1.702831 49.417908 1.278402 74.147316h17.897628z" fill="#797979" p-id="41153"></path><path d="M570.168889 608.519351c1.577548 0.283805 2.85595 1.135221 3.835206 2.556804l1.278402 12.78402c-0.143181 5.471561-1.848569 9.731196-5.113608 12.78402 3.004245-9.332335 3.004245-18.708135 0-28.124844z" fill="#636363" p-id="41154"></path><path d="M705.679501 603.405743c-3.894012 8.015581-5.599401 16.537408-5.113608 25.56804-2.886632-5.440879-3.313618-11.405903-1.278402-17.897628 0.963915-3.686911 3.093733-6.243715 6.39201-7.670412z" fill="#656565" p-id="41155"></path><path d="M168.750662 628.973783a82.998971 82.998971 0 0 1 20.454432 1.278402c2.342032 0.710792 4.044864 1.989194 5.113608 3.835206-9.260744 0.455111-17.785129-1.250277-25.56804-5.113608z" fill="#999999" p-id="41156"></path><path d="M248.011586 628.973783h63.920099v17.897628h-63.920099c19.98398-2.53635 40.438412-3.390322 61.363295-2.556804v-12.78402c-20.924884 0.833518-41.379316-0.020454-61.363295-2.556804z" fill="#232323" p-id="41157"></path><path d="M355.397353 623.860175c4.461623 3.919581 7.018427 9.033189 7.670412 15.340824-4.461623-3.919581-7.018427-9.033189-7.670412-15.340824z" fill="#8D8D8D" p-id="41158"></path><path d="M414.203845 613.632959l-5.113608 20.454432c-0.631531 3.101403-2.336919 4.806792-5.113608 5.113608 1.843456-9.636594 5.251675-18.158422 10.227216-25.56804z" fill="#666666" p-id="41159"></path><path d="M749.145169 631.530587a155.788624 155.788624 0 0 1 28.124843 1.278402c1.421583 0.979256 2.272999 2.257658 2.556804 3.835206a424.416679 424.416679 0 0 1-30.681647-5.113608z" fill="#696969" p-id="41160"></path><path d="M383.522197 639.200999c2.937768 0.74403 4.643156 2.873848 5.113608 6.39201 1.516185 7.338027 3.219016 14.581453 5.113608 21.732834-2.776689-0.306816-4.482077-2.012205-5.113608-5.113608a223.454442 223.454442 0 0 1-5.113608-23.011236z" fill="#A8A8A8" p-id="41161"></path><path d="M478.123945 595.735331v86.931336h20.454432v-30.681648c9.897388-0.805393 19.273189 0.046022 28.124844 2.556804h-25.56804v30.681648h-25.56804c-0.838632-30.285343 0.012784-60.115576 2.556804-89.48814z" fill="#9C9C9C" p-id="41162"></path><path d="M726.133933 664.769039c-7.785468 0.403975-15.031451-1.301413-21.732834-5.113608-1.797433 6.210477-1.373004 12.175501 1.278402 17.897628-4.778667-5.458777-6.484055-12.277773-5.113608-20.454432 9.071541 1.610787 17.593368 4.167591 25.56804 7.670412z" fill="#434343" p-id="41163"></path><path d="M403.976629 639.200999c0.138067 8.92836-2.418737 16.598772-7.670412 23.011236 1.416469-8.299386 3.973273-15.969798 7.670412-23.011236z" fill="#878787" p-id="41164"></path><path d="M171.307466 646.871411l20.454432 2.556804c1.066187 6.593998-0.639201 12.134592-5.113608 16.619226a185.276245 185.276245 0 0 1-43.465668 0c-2.342032-0.710792-4.047421-1.989194-5.113608-3.835206a171.786547 171.786547 0 0 0 46.022472 1.278402c4.239181-1.853683 5.517583-4.837473 3.835206-8.948814-6.174682-1.6159-11.715276-4.172704-16.619226-7.670412z" fill="#BEBEBE" p-id="41165"></path><path d="M248.011586 646.871411h63.920099c-19.98398 2.53635-40.438412 3.390322-61.363295 2.556804v15.340824c20.924884-0.833518 41.379316 0.020454 61.363295 2.556804h-63.920099v-20.454432z" fill="#B5B5B5" p-id="41166"></path><path d="M132.955406 680.109863a399.710282 399.710282 0 0 0 58.806492 2.556804c-18.230012 6.325533-36.981613 6.752519-56.249688 1.278402-1.421583-0.979256-2.275556-2.257658-2.556804-3.835206z" fill="#575757" p-id="41167"></path><path d="M572.725693 680.109863c1.388345 0.153408 2.23976 1.004824 2.556804 2.556804-9.754207 3.3443-19.127451 3.3443-28.124844 0 9.0562 0.80028 17.578027-0.053693 25.56804-2.556804z" fill="#868686" p-id="41168"></path><path d="M882.098976 649.428215c2.518452 10.569828 3.369868 21.651016 2.556804 33.238452h17.897628c-6.259056 2.48777-13.078052 3.339186-20.454432 2.556804v-35.795256z" fill="#7A7A7A" p-id="41169"></path><path d="M616.191361 682.666667h40.908864c-13.676345 6.637463-27.314337 6.637463-40.908864 0z" fill="#5D5D5D" p-id="41170"></path><path d="M721.020325 682.666667h48.579275c-7.798252 3.669014-16.32008 5.374402-25.568039 5.113608-8.473248 0.401418-16.14366-1.301413-23.011236-5.113608z" fill="#606060" p-id="41171"></path></svg>