<?xml version="1.0" standalone="no"?><!DOCTYPE svg PUBLIC "-//W3C//DTD SVG 1.1//EN" "http://www.w3.org/Graphics/SVG/1.1/DTD/svg11.dtd"><svg t="1743821777739" class="icon" viewBox="0 0 1024 1024" version="1.1" xmlns="http://www.w3.org/2000/svg" p-id="16025" xmlns:xlink="http://www.w3.org/1999/xlink" width="200" height="200"><path d="M844.710603 1021.456254l-3.364571 0.032508-671.849651-0.105651h-0.016254c-45.698032-1.706667-79.303111-38.741333-83.88673-84.731936l-0.446984-8.289524L55.109079 267.50781a19.521016 19.521016 0 0 1 19.098413-21.032635v-0.008127H285.988571C291.181714 109.340444 389.729524 0 510.537143 0c120.807619 0 219.363556 109.332317 224.548571 246.450794h211.472254a19.521016 19.521016 0 0 1 19.504762 20.528762v0.008127l-32.914286 663.47073-0.308825 5.623873c-3.974095 46.551365-41.63454 84.114286-88.129016 85.365841z m-166.359365-256.86146c9.752381-79.969524-41.772698-130.982603-177.753397-174.380699-65.861079-22.471111-96.889905-51.898921-96.166603-92.468825 2.746921-44.909714 44.600889-77.669587 100.091937-78.758603 38.465016 0.763937 81.188571 10.15873 122.741841 37.871746 4.933079 3.120762 8.411429 2.633143 11.215238-1.61727 3.85219-6.192762 13.39327-21.048889 16.603429-26.372064 2.169905-3.478349 2.600635-7.964444-2.909461-11.979174-7.875048-5.843302-29.956063-17.668063-41.813333-22.633651-32.223492-13.490794-68.388571-21.975365-106.951111-21.902222-81.229206 0.341333-145.24546 51.736381-150.593016 120.311873-3.494603 49.493333 21.008254 89.689397 73.614222 120.336254 11.150222 6.501587 71.501206 30.500571 95.492064 37.96927 75.515937 23.511365 114.720508 65.649778 105.488254 114.785523-8.370794 44.584635-55.271619 73.370413-119.921778 74.248127-51.265016-1.950476-97.385651-22.853079-133.160635-50.671746-0.902095-0.67454-5.396317-4.161016-6.013968-4.632381-4.412952-3.453968-9.240381-3.23454-12.18235 1.251556-2.178032 3.291429-15.993905 23.259429-19.488508 28.501333-3.275175 4.616127-1.519746 7.151746 1.885461 9.979937 14.945524 12.458667 34.775365 26.087619 48.298666 32.979301 37.140317 18.935873 77.47454 29.322159 120.376889 30.955683 27.591111 1.869206 62.390857-4.063492 88.348445-15.083683 46.648889-19.789206 76.767492-59.335111 82.789587-108.690285zM510.537143 59.652063c-88.015238 0-159.776508 82.960254-163.124826 186.806858h326.257778C670.305524 142.612317 598.552381 59.652063 510.537143 59.652063z" fill="#EE4D2D" p-id="16026"></path></svg>