<?xml version="1.0" standalone="no"?><!DOCTYPE svg PUBLIC "-//W3C//DTD SVG 1.1//EN" "http://www.w3.org/Graphics/SVG/1.1/DTD/svg11.dtd"><svg t="1743833563517" class="icon" viewBox="0 0 1082 1024" version="1.1" xmlns="http://www.w3.org/2000/svg" p-id="3690" xmlns:xlink="http://www.w3.org/1999/xlink" width="211.328125" height="200"><path d="M996.974983 228.499865c-57.826961-90.159439-141.593769-165.56749-237.722198-203.868958l-28.427379-9.656836A335.262762 335.262762 0 0 0 633.713914 0C529.563468 0.543129 445.367587 86.688844 445.367587 192.914043c0 44.265026 14.648193 84.956262 39.061848 117.397366l-11.720727-15.408574a290.25908 290.25908 0 0 0 18.87917 24.956784c29.948141 36.237577 72.371959 73.778664 127.380079 116.419733 135.190277 104.704438 222.965379 197.470896 230.123821 312.58712 1.738013 15.625826 2.824272 31.463472 2.824272 47.523801 0 58.478716-12.692928 120.433458-34.390938 163.834908h0.217252q-9.330959 17.141156-3.476027 22.132513c2.932897 2.498394 9.439585 4.339602 20.617183-2.492963a546.02946 546.02946 0 0 0 153.634942-150.164347 546.387925 546.387925 0 0 0 94.178595-299.351063 545.741601 545.741601 0 0 0-85.716643-301.849456z" fill="#F4732A" p-id="3691"></path><path d="M586.630048 621.703644l-84.630385-69.873565C324.494195 422.386109 232.053613 282.747604 282.722132 110.55937c4.556854-15.734451 10.199965-30.920343 16.598026-45.894413v-0.108626q12.589734-26.36892-14.751387-13.344683c-282.427158 154.232385-371.027816 517.933389-191.181461 784.778171a426.291207 426.291207 0 0 0 97.220118 97.763247h-0.108626q187.053679 137.791865 347.521187 65.202655h0.217251a218.636639 218.636639 0 0 0 133.457695-202.570879 219.06028 219.06028 0 0 0-85.173513-174.681198h0.108626z" fill="#092540" p-id="3692"></path></svg>