<?xml version="1.0" standalone="no"?><!DOCTYPE svg PUBLIC "-//W3C//DTD SVG 1.1//EN" "http://www.w3.org/Graphics/SVG/1.1/DTD/svg11.dtd"><svg t="1743822077703" class="icon" viewBox="0 0 1024 1024" version="1.1" xmlns="http://www.w3.org/2000/svg" p-id="38096" xmlns:xlink="http://www.w3.org/1999/xlink" width="200" height="200"><path d="M860.918519 0c90.074074 0 163.081481 73.007407 163.081481 163.081481v697.6c0 90.074074-73.007407 163.081481-163.081481 163.081482H163.081481C73.007407 1024 0 950.992593 0 860.918519V163.081481C0 73.007407 73.007407 0 163.081481 0h697.837038z" fill="#FFFC00" p-id="38097"></path><path d="M515.792593 864c-1.896296 0-3.792593 0-5.688889-0.237037-1.185185 0-2.37037 0.237037-3.792593 0.237037-44.325926 0-73.007407-20.148148-100.503704-39.585185-18.962963-13.511111-36.977778-26.074074-58.311111-29.62963-10.42963-1.659259-20.622222-2.607407-30.577777-2.607407-18.014815 0-32 2.844444-42.42963 4.740741-6.162963 1.185185-11.614815 2.37037-15.881482 2.37037-4.266667 0-9.007407-0.948148-10.903703-7.822222-1.659259-5.925926-3.081481-11.851852-4.266667-17.303704-3.081481-14.459259-5.451852-23.22963-11.377778-24.177778-70.4-10.903704-90.548148-25.837037-95.051852-36.266666-0.711111-1.422222-0.948148-3.081481-1.185185-4.503704-0.237037-4.02963 2.607407-7.585185 6.637037-8.296296 108.325926-17.777778 156.918519-128.474074 159.051852-133.214815 0-0.237037 0-0.237037 0.237037-0.474074 6.637037-13.511111 7.822222-25.125926 3.792593-34.607408-7.348148-17.540741-31.762963-25.125926-47.644445-30.340741-4.02963-1.185185-7.585185-2.37037-10.666666-3.555555-32-12.562963-34.607407-25.6-33.422223-32.237037 2.133333-11.377778 17.303704-19.2 29.392593-19.2 3.318519 0 6.4 0.711111 8.77037 1.659259 14.459259 6.637037 27.496296 10.192593 38.637037 10.192593 15.407407 0 22.281481-6.4 22.992593-7.348148-0.474074-7.348148-0.948148-14.933333-1.422222-22.992593-3.318519-51.2-7.111111-114.962963 9.007407-151.22963 48.592593-108.8 151.466667-117.333333 182.044445-117.333333 0.711111 0 13.274074-0.237037 13.274074-0.237037h1.896296c30.577778 0 133.688889 8.533333 182.281481 117.333333 16.118519 36.266667 12.088889 100.02963 9.007408 151.22963l-0.237037 2.133333c-0.474074 7.111111-0.948148 13.985185-1.185185 20.622223 0.711111 0.711111 6.874074 6.874074 21.096296 7.348148 10.666667-0.474074 22.992593-3.792593 36.266667-10.192593 4.02963-1.896296 8.296296-2.133333 11.377777-2.133333 4.503704 0 9.244444 0.948148 13.037037 2.37037h0.237037c10.903704 3.792593 18.014815 11.377778 18.251852 19.437037 0.237037 7.585185-5.688889 18.725926-33.659259 29.866667-2.844444 1.185185-6.637037 2.37037-10.666667 3.555555-16.118519 5.214815-40.296296 12.8-47.644444 30.340741-4.02963 9.481481-2.844444 21.333333 3.792593 34.607408 0 0.237037 0.237037 0.237037 0.237037 0.474074 2.133333 4.740741 50.488889 115.437037 159.051851 133.214814 4.02963 0.711111 6.874074 4.266667 6.637037 8.296297 0 1.422222-0.474074 3.081481-1.185185 4.503703-4.503704 10.42963-24.651852 25.362963-95.051852 36.266667-5.688889 0.948148-8.059259 8.296296-11.377777 24.177778-1.185185 5.688889-2.607407 11.377778-4.266667 17.303704-1.422222 5.214815-4.740741 7.585185-10.192593 7.585185h-0.948148c-3.792593 0-9.007407-0.711111-15.881481-1.896297-11.851852-2.37037-25.362963-4.503704-42.42963-4.503703-9.955556 0-20.148148 0.948148-30.577778 2.607407-21.096296 3.555556-39.111111 16.118519-58.074074 29.62963-27.496296 19.674074-56.177778 39.822222-100.503703 39.822222z" fill="#FFFFFF" p-id="38098"></path><path d="M518.4 167.822222c28.918519 0 128.237037 7.822222 175.17037 112.82963 15.407407 34.607407 11.377778 97.185185 8.296297 147.437037-0.474074 8.059259-0.948148 15.644444-1.422223 22.992592l-0.237037 3.081482 2.133334 2.37037c0.948148 0.948148 8.77037 9.244444 26.785185 9.955556h0.474074c11.851852-0.474074 25.125926-4.02963 39.585185-10.903704 2.133333-0.948148 4.977778-1.422222 7.822222-1.422222 3.318519 0 7.111111 0.711111 9.955556 1.896296l0.474074 0.237037c7.585185 2.607407 12.8 7.585185 13.037037 12.088889 0 2.607407-1.896296 11.851852-28.681481 22.281482-2.607407 0.948148-6.162963 2.133333-9.955556 3.318518-17.540741 5.451852-43.851852 13.985185-52.622222 34.844445-4.977778 11.851852-3.555556 25.6 4.029629 41.244444 3.081481 7.348148 52.859259 119.466667 164.977778 137.955556 0 0.474074-0.237037 1.185185-0.474074 1.896296-1.896296 4.503704-13.985185 19.911111-89.125926 31.525926-11.851852 1.896296-14.696296 14.933333-18.014815 30.340741-1.185185 5.451852-2.37037 10.903704-4.029629 16.829629-0.474074 1.659259-0.711111 1.896296-2.370371 1.896297h-0.948148c-3.318519 0-8.296296-0.711111-14.222222-1.896297-10.666667-2.133333-25.125926-4.740741-43.851852-4.740741-10.42963 0-21.096296 0.948148-31.762963 2.607408-22.992593 3.792593-41.718519 17.066667-61.392592 31.051852-26.548148 18.725926-54.044444 38.162963-96 38.162963-1.896296 0-3.555556 0-5.451852-0.237037h-0.948148c-0.948148 0-2.133333 0.237037-3.081482 0.237037-41.955556 0-69.451852-19.437037-96-38.162963-19.674074-13.985185-38.4-27.259259-61.392592-31.051852-10.666667-1.896296-21.57037-2.607407-31.762963-2.607408-18.725926 0-33.185185 2.844444-43.851852 4.977778-5.925926 1.185185-10.903704 2.133333-14.222222 2.133334-2.607407 0-2.844444-0.237037-3.318519-2.133334-1.659259-5.688889-2.844444-11.377778-4.02963-16.829629-3.318519-15.407407-6.162963-28.444444-18.014814-30.340741-75.140741-11.614815-87.22963-27.022222-89.125926-31.525926-0.237037-0.711111-0.474074-1.185185-0.474074-1.896296 112.118519-18.488889 161.896296-130.607407 164.977777-137.955556 7.585185-15.644444 9.007407-29.392593 4.02963-41.244444-8.77037-20.859259-35.318519-29.155556-52.622222-34.844445-4.02963-1.185185-7.348148-2.37037-9.955556-3.318518-22.755556-9.007407-29.62963-18.014815-28.444444-23.466667 1.185185-6.4 12.088889-12.8 21.57037-12.8 2.133333 0 4.02963 0.237037 5.451852 0.948148 15.407407 7.348148 29.62963 10.903704 41.955556 10.903704 19.437037 0 28.207407-9.007407 29.155555-10.192593l2.133333-2.37037-0.237037-3.081482c-0.474074-7.348148-0.948148-15.17037-1.422222-22.992592-3.081481-50.251852-7.111111-112.82963 8.296296-147.437037 46.696296-104.533333 145.540741-112.592593 174.696297-112.592593 0.711111 0 13.511111-0.237037 13.511111-0.237037-0.237037 0.237037 0.474074 0.237037 0.948148 0.237037m0-15.881481h-1.896296s-12.325926 0.237037-13.274074 0.237037c-31.525926 0-138.666667 8.77037-189.155556 122.074074-17.066667 38.162963-13.037037 102.874074-9.718518 154.785185 0.474074 6.162963 0.711111 12.562963 1.185185 18.725926-2.607407 1.422222-7.348148 3.318519-14.933334 3.318518-9.955556 0-21.807407-3.081481-35.318518-9.481481-3.555556-1.659259-7.585185-2.607407-12.088889-2.607407-15.644444 0-34.37037 10.192593-37.214815 25.6-2.133333 11.140741 2.844444 27.022222 38.4 41.244444 3.318519 1.185185 7.111111 2.37037 11.140741 3.792593 14.696296 4.740741 36.740741 11.614815 42.903704 25.837037 3.081481 7.348148 1.896296 16.82963-3.792593 27.97037-0.237037 0.237037-0.237037 0.474074-0.237037 0.711111-1.896296 4.503704-48.82963 111.407407-152.888889 128.474074-8.059259 1.422222-13.748148 8.533333-13.274074 16.592593 0.237037 2.37037 0.711111 4.740741 1.659259 7.111111 7.822222 18.251852 40.77037 31.762963 100.740741 41.007407 1.896296 2.607407 4.02963 12.325926 5.451852 18.251852 1.185185 5.688889 2.607407 11.614815 4.503704 18.014815 1.896296 6.162963 6.4 13.511111 18.488888 13.511111 4.977778 0 10.666667-1.185185 17.303704-2.37037 9.955556-1.896296 23.703704-4.740741 40.770371-4.740741 9.481481 0 19.437037 0.711111 29.392592 2.37037 19.437037 3.318519 35.792593 14.933333 54.755556 28.207408 27.259259 19.2 58.074074 41.244444 105.244444 41.244444 1.185185 0 2.607407 0 3.792593-0.237037 1.422222 0 3.555556 0.237037 5.688889 0.237037 46.933333 0 77.985185-21.807407 105.244444-41.244444 19.2-13.511111 35.555556-25.125926 54.992593-28.444445 9.955556-1.659259 19.674074-2.37037 29.155555-2.37037 16.355556 0 29.392593 2.133333 40.770371 4.266667 7.348148 1.422222 13.037037 2.133333 17.303703 2.133333h0.948148c9.007407 0 15.17037-4.740741 17.777778-13.274074 1.896296-6.162963 3.081481-11.851852 4.503704-17.777778 1.185185-5.925926 3.318519-15.407407 5.451852-18.014815 59.97037-9.244444 92.918519-22.755556 100.740741-40.77037 0.948148-2.37037 1.659259-4.740741 1.659259-7.111111 0.474074-8.059259-5.214815-15.17037-13.274074-16.592593-104.059259-17.066667-150.992593-123.97037-152.888889-128.474074 0-0.237037-0.237037-0.474074-0.474074-0.711111-5.451852-11.377778-6.874074-20.622222-3.792593-27.97037 5.925926-14.222222 28.207407-21.096296 42.903704-25.837037 4.02963-1.185185 8.059259-2.607407 11.140741-3.792593 26.074074-10.192593 38.874074-22.755556 38.637037-37.451852-0.237037-11.377778-9.244444-21.57037-23.22963-26.785185-4.740741-1.896296-10.42963-3.081481-15.881481-3.081481-3.792593 0-9.481481 0.474074-14.696297 3.081481-12.325926 5.688889-23.466667 9.007407-32.948148 9.244444-6.4-0.237037-10.42963-1.896296-12.8-3.318518 0.237037-5.214815 0.711111-10.666667 0.948148-16.355556l0.237037-2.133333c3.318519-52.148148 7.348148-116.859259-9.718518-155.022222-51.2-113.303704-158.577778-122.074074-190.340741-122.074074z" fill="#030303" p-id="38099"></path></svg>