<svg xmlns="http://www.w3.org/2000/svg" width="368.3" height="134"><g fill="#333"><path d="M182.1 47.6c0-4.4-3-6.5-8.8-6.5-5.9 0-8.9 2.1-8.9 6.5V49c0 3.2 2.3 4.3 3.7 4.9l15.8 5.6c6.2 2.2 10.7 6.3 10.7 13v7c0 7.6-5.3 14.8-21.6 14.8-16.1 0-21.6-7.2-21.6-14.8v-5.7c0-1.6.6-2.4 2.2-2.4h7.6c1.6 0 2.2.7 2.2 2.4v4.1c0 4.4 3.4 6.5 9.6 6.5 6.1 0 9.6-2.1 9.6-6.5V75c0-3.7-3.6-5.2-7.7-6.7l-14-5.3c-4.3-1.6-8.2-6.2-8.2-11.7V46c0-7.6 4.7-14.8 20.6-14.8 15.8 0 20.9 7.2 20.9 14.8v3.7c0 1.5-.6 2.3-2.3 2.3h-7.6c-1.5 0-2.1-.7-2.1-2.3v-2.1zm140.5-15.7c1.5 0 2.3.5 2.3 2.2v5.7c0 1.6-.7 2.3-2.3 2.3h-23.1v14.7h21.6c1.6 0 2.3.5 2.3 2.2v5.8c0 1.6-.6 2.3-2.3 2.3h-21.6v24.2c0 1.6-.5 2.4-2.2 2.4h-7.9c-1.6 0-2.2-.7-2.2-2.4v-57c0-1.6.5-2.4 2.2-2.4h33.2zm25.1 51.8c-.1 0-1.5.2-2 .2-3.8 0-4.9-1.5-4.9-4.8V50.7c0-1.6-.7-2.3-2.3-2.3h-7.4c-1.5 0-2.2.6-2.2 2.3v31.4c0 7.1 4.8 12.1 13 12.1 2 0 3.8-.2 5.4-.6.1 0 .2-.1.4-.1s.6-9.9 0-9.8zm17.6-35.3h-7.5c-1.6 0-2.2.6-2.2 2.3V80l.5 11.3c.2 1.6.6 2.3 2.3 2.3h7c1.5 0 2.2-.6 2.2-2.3V50.7c-.1-1.7-.8-2.3-2.3-2.3zm-84.8 0h-6.9c-1.5 0-2 .8-2.4 2.3l-14.2 44-4.4 14.8c-.5 1.5.5 2.3 2.2 2.3h5.4c1.6 0 2.2-1.1 2.5-2.3l20-58.8c.5-1.5-.6-2.3-2.2-2.3zm-60.6 35.2c-1.5-.4-2.2.5-2.2 2.1V91c0 1.6 1 2.1 2.2 2.4v-9.8z"/><path d="M347.5 83.8c1.5-.4 2.2.5 2.2 2.1v5.2c0 1.6-1 2.1-2.2 2.4v-9.7zm-88.8-18.1c-.3-.9-4.9-15.1-4.9-15.1-.5-1.4-.9-2.3-2.5-2.3h-7.5c-1.5 0-2.6.8-2.1 2.3L253 83.3s.9 1.1 1.2 0c1.2-4.1 4.1-13.5 4.5-14.7.4-1.6.3-2 0-2.9zm-32.5-18c-7.4 0-12 3.2-14.5 5.2l-.2-2.2c-.1-1.6-.5-2.3-2.2-2.3h-7c-1.6 0-2.3.6-2.3 2.3v58.8c0 1.6.6 2.3 2.3 2.3h7.5c1.5 0 2.1-.6 2.1-2.3V62.2c1.9-1.4 5.9-4.2 10.5-4.2 4.2 0 4.9 2.4 4.9 4.7v16.4c0 2.4-.7 4.8-4.9 4.8-1 0-1.9-.1-2.8-.3-.6-.1-.6 9.6 0 9.7 1.9.5 4 .9 6.5.9 9 0 13.1-5.2 13.1-13.2V60.9c.2-8.1-4-13.2-13-13.2z"/></g><path fill="#333" d="M82.8 7.2c-4.9-1.3-9.7-2.1-14.6-2.3l.5 5.7c4.2.2 8.3.9 12.5 2 30.8 8.5 49 40.2 41.1 71-3.5 12.6-10.9 23.2-20.5 30.6l-11-13.1c-.2-.2-.2-.5-.2-.8l4.3-13.8-23.6 4.4c-.2 0-.5 0-.7-.2-.2-.2-.3-.4-.3-.6l.1-3.9c0-.3.1-.5.3-.6l19.4-14.3c-.9-3.3-5.7-21.4-11.3-28.6-.2-.2-.2-.6-.1-.8s.4-.5.7-.5l28.8-1.4-39.8-19.3c-.2-.1-.4-.4-.4-.7L66.2 1 20.1 14l3.2 13.3c.1.3 0 .6-.3.8l-15 11-.4 2L27.7 43c.3 0 .6.3.7.6L39 87.3v.3l.3 1.1-.9-.4H38L13.4 79l2 18.4C8.4 85.3 5.6 70.6 8.7 56c.2-.9.4-1.7.6-2.6.7-2.7 2.4-6.9 3.9-10.2l-6-.6C6 45.2 5 48 4.2 50.8L4 51c-.4 1.3-.7 2.6-1 3.9-7.5 33.2 12.4 66.9 45.6 76.1 34.1 9.4 69.6-10.7 79-44.8 9.4-34.1-10.7-69.6-44.8-79zM50.9 83.3L86 72.8 66.4 84.6l-15.5-1.3z"/><path fill="#EC1C27" d="M81.9 124.4L68.5 98l-15.3-1.6 22.4 29.4c2.1-.3 4.2-.8 6.3-1.4z"/><path fill="none" d="M-45-32h435.3v198H-45z"/></svg>