<?xml version="1.0" standalone="no"?><!DOCTYPE svg PUBLIC "-//W3C//DTD SVG 1.1//EN" "http://www.w3.org/Graphics/SVG/1.1/DTD/svg11.dtd"><svg t="1743821946942" class="icon" viewBox="0 0 1024 1024" version="1.1" xmlns="http://www.w3.org/2000/svg" p-id="27820" xmlns:xlink="http://www.w3.org/1999/xlink" width="200" height="200"><path d="M732.885333 369.621333a399.445333 399.445333 0 0 0 233.642667 75.093334V276.394667c-16.512 0-32.938667-1.706667-49.066667-5.162667v132.437333a399.488 399.488 0 0 1-233.685333-75.050666v343.381333c0 171.776-138.752 310.997333-309.888 310.997333a307.626667 307.626667 0 0 1-172.501333-52.608A308.394667 308.394667 0 0 0 422.954667 1024c171.136 0 309.930667-139.221333 309.930666-311.04V369.664z m60.501334-169.728a234.88 234.88 0 0 1-60.501334-137.301333V40.96h-46.506666a235.562667 235.562667 0 0 0 107.008 158.933333zM309.632 798.634667a141.994667 141.994667 0 0 1-28.928-86.144 141.994667 141.994667 0 0 1 184.746667-135.594667V404.906667a311.509333 311.509333 0 0 0-49.024-2.858667v133.888a141.994667 141.994667 0 0 0-184.746667 135.594667c0 55.552 31.701333 103.68 77.952 127.104z" fill="#FF004F" p-id="27821"></path><path d="M683.776 328.661333a399.530667 399.530667 0 0 0 233.685333 75.050667V271.274667a234.368 234.368 0 0 1-124.074666-71.381334A235.605333 235.605333 0 0 1 686.378667 40.96h-122.154667v672a142.037333 142.037333 0 0 1-141.738667 141.824 141.397333 141.397333 0 0 1-112.853333-56.149333 142.293333 142.293333 0 0 1-77.994667-127.104 141.994667 141.994667 0 0 1 184.746667-135.594667V402.048c-168.106667 3.498667-303.36 141.354667-303.36 310.954667 0 84.650667 33.706667 161.365333 88.362667 217.429333a307.626667 307.626667 0 0 0 172.501333 52.608c171.178667 0 309.888-139.264 309.888-311.04V328.704z" fill="#000000" p-id="27822"></path><path d="M917.461333 271.274667v-35.84a232.96 232.96 0 0 1-124.074666-35.541334 234.112 234.112 0 0 0 124.074666 71.381334zM686.378667 40.96a239.402667 239.402667 0 0 1-2.56-19.328V0h-168.661334v672a141.994667 141.994667 0 0 1-141.738666 141.824 140.757333 140.757333 0 0 1-63.786667-15.189333 141.397333 141.397333 0 0 0 112.853333 56.149333 142.037333 142.037333 0 0 0 141.738667-141.781333V40.96h122.154667zM416.426667 402.048V363.946667a311.808 311.808 0 0 0-42.496-2.901334c-171.178667 0-309.930667 139.221333-309.930667 310.997334a310.997333 310.997333 0 0 0 137.386667 258.389333 310.528 310.528 0 0 1-88.32-217.429333c0-169.557333 135.253333-307.456 303.36-310.954667z" fill="#00F2EA" p-id="27823"></path></svg>