<?xml version="1.0" standalone="no"?><!DOCTYPE svg PUBLIC "-//W3C//DTD SVG 1.1//EN" "http://www.w3.org/Graphics/SVG/1.1/DTD/svg11.dtd"><svg t="1743822220209" class="icon" viewBox="0 0 1024 1024" version="1.1" xmlns="http://www.w3.org/2000/svg" p-id="46266" xmlns:xlink="http://www.w3.org/1999/xlink" width="200" height="200"><path d="M1006.53312 570.88a28.224 28.224 0 0 0-11.744-5.952l-0.192-0.032c-25.6 26.016-57.6 53.344-85.344 71.68-13.216 8.544-29.856 12.8-40.544 12.8-25.184 0-35.84-23.456-38.816-61.44a2263.456 2263.456 0 0 1-7.264-207.2v1.12c0-96.416-22.176-162.144-80.224-167.264l-7.68-0.416c-35.424 0-52.896 18.336-75.52 64.864-19.616 40.096-49.92 98.144-105.824 209.056-46.016 90.848-95.648 168.864-151.872 241.472l2.528-3.392c-13.216 16.224-23.456 27.296-33.28 34.144a33.92 33.92 0 0 1-18.752 5.984h-0.032c-18.336 0-32-15.36-36.256-51.616a225.76 225.76 0 0 1-1.696-28.16v-1.344 0.064c0-74.656 28.16-196.256 76.8-374.624 35.424-130.144 20.48-218.88-57.184-218.88h-1.28c-17.504 0-32 6.816-46.08 17.92-14.08 10.656-27.744 34.56-40.96 66.56-14.496 35.84-103.264 214.624-244.896 307.2-1.696 34.56 17.92 69.536 58.464 73.824 36.256 3.424 62.304-11.936 95.584-34.56l-6.816 31.136a1157.632 1157.632 0 0 0-20.384 103.424l-0.96 7.52c-19.616 179.2 62.72 267.52 159.584 267.52 16.224 0 32.416-2.144 48.224-6.4 106.656-26.88 209.056-149.76 330.656-432.224a788.256 788.256 0 0 0-0.352 88.096l-0.064-1.92c8.096 162.144 71.68 210.336 162.144 210.336 68.256 0 131.84-35.424 164.256-79.776A156.736 156.736 0 0 0 1024.45312 617.184v-0.224c-0.864-20.896-7.264-37.536-17.92-46.08z" fill="#EC5252" p-id="46267"></path></svg>