<?xml version="1.0" standalone="no"?><!DOCTYPE svg PUBLIC "-//W3C//DTD SVG 1.1//EN" "http://www.w3.org/Graphics/SVG/1.1/DTD/svg11.dtd"><svg t="1743833905008" class="icon" viewBox="0 0 1024 1024" version="1.1" xmlns="http://www.w3.org/2000/svg" p-id="10455" xmlns:xlink="http://www.w3.org/1999/xlink" width="200" height="200"><path d="M1024 469.930667v-25.770667L512 77.013333 0 444.16v25.728l512 367.189333 512-367.146666zM368.384 461.653333l117.333333 45.653334 0.682667-0.426667-65.109333-83.925333 41.984-30.72 114.986666 47.616 0.682667-0.469334-62.421333-86.101333 53.205333-38.954667 110.933333 164.266667-44.629333 32.682667-119.338667-49.365334-0.512 0.341334 67.968 86.954666-44.714666 32.725334-224.426667-81.194667 53.376-39.082667z m615.168 63.488l40.405333 28.970667v25.728l-512 367.146667L0 579.84v-25.728l40.405333-28.928 459.136 329.258667 12.458667 8.96 12.416-8.96 459.178667-329.258667z" p-id="10456" fill="#1296db"></path></svg>