<?xml version="1.0" standalone="no"?><!DOCTYPE svg PUBLIC "-//W3C//DTD SVG 1.1//EN" "http://www.w3.org/Graphics/SVG/1.1/DTD/svg11.dtd"><svg t="1743821805509" class="icon" viewBox="0 0 1024 1024" version="1.1" xmlns="http://www.w3.org/2000/svg" p-id="18041" xmlns:xlink="http://www.w3.org/1999/xlink" width="200" height="200"><path d="M915.754667 369.194667c-26.752 0-51.669333 21.802667-55.338667 48.426666l-27.178667 198.272c-2.986667 21.589333-13.354667 40.32-31.018666 56.192-17.706667 15.872-37.632 23.808-59.733334 23.808-21.504 0-38.954667-7.765333-52.224-23.338666-13.354667-15.573333-18.474667-34.474667-15.402666-56.704l16.426666-120.32c0.512-24.021333-17.536-42.794667-42.368-42.794667h-65.066666c-24.832 0-48.085333 18.773333-54.186667 42.794667l-16.938667 120.32a90.154667 90.154667 0 0 1-31.104 56.704c-17.664 15.573333-37.205333 23.338667-58.709333 23.338666a66.133333 66.133333 0 0 1-52.650667-23.808c-13.610667-15.872-18.901333-34.602667-15.914666-56.192l36.437333-263.082666c3.882667-25.6-11.306667-52.394667-34.474667-63.232 0 0-274.346667-114.346667-292.224-121.728-18.133333-7.424-38.656 9.216-45.653333 36.949333L1.664 270.976C-5.376 298.666667 10.496 330.197333 36.821333 340.992l183.893334 76.117333-27.562667 198.784c-9.258667 66.688 6.4 123.690667 46.933333 171.008 40.533333 47.36 93.994667 70.997333 160.426667 70.997334 61.312 0 117.248-20.608 167.850667-61.909334 40.405333 41.301333 91.008 61.909333 151.68 61.909334 66.389333 0 126.378667-23.637333 180.053333-70.997334 53.632-47.317333 85.12-104.362667 94.336-171.008 0 0 28.8-209.792 29.354667-213.461333 2.517333-18.304-17.322667-33.237333-44.032-33.237333h-64z" p-id="18042" fill="#1296db"></path></svg>