<?xml version="1.0" standalone="no"?><!DOCTYPE svg PUBLIC "-//W3C//DTD SVG 1.1//EN" "http://www.w3.org/Graphics/SVG/1.1/DTD/svg11.dtd"><svg t="1743821716125" class="icon" viewBox="0 0 2048 1024" version="1.1" xmlns="http://www.w3.org/2000/svg" p-id="11594" xmlns:xlink="http://www.w3.org/1999/xlink" width="400" height="200"><path d="M1310.72 286.72h-126.293333V215.04h235.52v64.853333l-119.466667 174.08s47.786667 3.413333 68.266667 10.24c27.306667 6.826667 61.44 23.893333 61.44 23.893334v71.68s-81.92-27.306667-126.293334-27.306667c-54.613333 0-126.293333 27.306667-126.293333 27.306667v-78.506667l133.12-194.56zM310.613333 512l-34.133333-34.133333V283.306667C276.48 242.346667 204.8 204.8 150.186667 204.8 71.68 204.8 10.24 256 6.826667 320.853333h81.92c6.826667-27.306667 27.306667-44.373333 54.613333-44.373333s47.786667 17.066667 47.786667 44.373333v30.72h-68.266667c-17.066667 0-34.133333 3.413333-47.786667 10.24-61.44 27.306667-88.746667 92.16-64.853333 146.773334s92.16 78.506667 153.6 51.2c17.066667-6.826667 30.72-17.066667 40.96-30.72l44.373333 44.373333L310.613333 512z m-204.8-17.066667c-20.48-20.48-13.653333-54.613333 10.24-78.506666 6.826667-6.826667 17.066667-13.653333 23.893334-13.653334h51.2V477.866667l-6.826667 6.826666c-23.893333 23.893333-58.026667 27.306667-78.506667 10.24zM1143.466667 512l-34.133334-34.133333V283.306667c0-40.96-71.68-78.506667-126.293333-78.506667-78.506667 0-139.946667 51.2-143.36 116.053333H921.6c6.826667-27.306667 27.306667-44.373333 54.613333-44.373333s47.786667 17.066667 47.786667 44.373333v30.72h-71.68c-17.066667 0-34.133333 3.413333-47.786667 10.24-61.44 27.306667-88.746667 92.16-64.853333 146.773334s92.16 78.506667 153.6 51.2c17.066667-6.826667 30.72-17.066667 40.96-30.72l44.373333 44.373333 64.853334-61.44z m-201.386667-17.066667c-20.48-20.48-13.653333-54.613333 10.24-78.506666 6.826667-6.826667 17.066667-13.653333 23.893333-13.653334h51.2V477.866667l-3.413333 3.413333c-27.306667 27.306667-61.44 30.72-81.92 13.653333z" fill="#221E1F" p-id="11595"></path><path d="M774.826667 300.373333v0z" fill="#221E1F" p-id="11596"></path><path d="M686.08 204.8c-37.546667 0-68.266667 23.893333-81.92 64.853333-17.066667-40.96-47.786667-64.853333-85.333333-64.853333s-68.266667 30.72-81.92 71.68V215.04h-85.333334v358.4h85.333334V341.333333c0-30.72 23.893333-51.2 51.2-51.2 13.653333 0 37.546667 23.893333 37.546666 37.546667v242.346667h85.333334v-191.146667-47.786667c3.413333-20.48 27.306667-40.96 47.786666-37.546666 17.066667 0 37.546667 23.893333 37.546667 40.96v238.933333h85.333333v-273.066667C768 245.76 744.106667 204.8 686.08 204.8z" fill="#221E1F" p-id="11597"></path><path d="M774.826667 303.786667v13.653333c3.413333-3.413333 3.413333-10.24 0-13.653333z" fill="#221E1F" p-id="11598"></path><path d="M1962.666667 204.8c-37.546667 0-68.266667 30.72-81.92 71.68V215.04h-85.333334v358.4h85.333334V341.333333c0-30.72 23.893333-51.2 51.2-51.2 13.653333 0 37.546667 23.893333 37.546666 37.546667v242.346667H2048V286.72C2048 238.933333 2000.213333 204.8 1962.666667 204.8zM1604.266667 204.8c-81.92 0-146.773333 81.92-146.773334 187.733333 0 102.4 64.853333 187.733333 146.773334 187.733334s146.773333-81.92 146.773333-187.733334c-3.413333-102.4-68.266667-187.733333-146.773333-187.733333z m44.373333 252.586667c0 23.893333-20.48 44.373333-44.373333 44.373333h-3.413334c-23.893333 0-44.373333-20.48-44.373333-44.373333V324.266667c0-23.893333 20.48-44.373333 44.373333-44.373334h3.413334c23.893333 0 44.373333 20.48 44.373333 44.373334v133.12z" fill="#221E1F" p-id="11599"></path><path d="M310.613333 604.16s225.28 143.36 525.653334 146.773333c300.373333 3.413333 409.6-85.333333 436.906666-92.16s20.48 23.893333 0 40.96-276.48 150.186667-477.866666 129.706667-389.12-102.4-488.106667-201.386667c-30.72-34.133333 3.413333-23.893333 3.413333-23.893333z" fill="#F59328" p-id="11600"></path><path d="M1191.253333 631.466667s122.88-23.893333 133.12 0c10.24 23.893333-23.893333 112.64-37.546666 136.533333-10.24 17.066667 13.653333 20.48 23.893333 10.24 10.24-13.653333 68.266667-85.333333 61.44-163.84 0-27.306667-20.48-34.133333-58.026667-34.133333-23.893333 0-105.813333 17.066667-136.533333 34.133333-3.413333 3.413333-6.826667 20.48 13.653333 17.066667z" fill="#F59328" p-id="11601"></path></svg>