<?xml version="1.0" standalone="no"?><!DOCTYPE svg PUBLIC "-//W3C//DTD SVG 1.1//EN" "http://www.w3.org/Graphics/SVG/1.1/DTD/svg11.dtd"><svg t="1743822066552" class="icon" viewBox="0 0 1024 1024" version="1.1" xmlns="http://www.w3.org/2000/svg" p-id="37130" xmlns:xlink="http://www.w3.org/1999/xlink" width="200" height="200"><path d="M32 512a480 480 0 1 0 960 0c0-265.088-214.912-480-480-480C246.912 32 32 246.912 32 512z" fill="#FFB667" p-id="37131"></path><path d="M723.584 386.944c-4.544 85.056-13.824 158.912-44.16 228.992-6.048 13.888-13.888 26.88-23.36 38.688-22.08 27.936-57.728 28.16-79.584 0-14.784-19.488-26.56-41.088-39.36-62.048-4.544-7.296-7.776-15.296-12.32-22.592-7.776-12.864-14.56-12.864-22.816-0.48-15.584 23.552-30.624 47.136-47.2 70.24-7.296 9.92-16 18.688-25.888 26.016-22.08 16.32-50.656 12.896-64-10.464-13.76-24.032-25.792-50.08-32.576-76.8-12.48-48.032-22.4-96.736-29.664-145.856a207.296 207.296 0 0 1 8-97.28c12.8-38.144 41.728-41.344 67.328-22.816 33.6 24.32 58.976 55.872 83.296 88.256 13.6 17.984 26.144 36.704 39.456 54.944 9.504 13.12 15.04 12.832 23.808-0.768 29.12-44 58.496-88 97.376-124.48 8.544-8 18.56-15.04 28.864-21.12 27.36-16.32 52.96-8 62.016 21.888 6.496 21.12 8.544 43.52 10.784 55.68z m-39.168 14.336c-0.736-12.64-0.736-28.96-2.752-45.024-0.768-5.6-4.8-12.832-9.28-15.296-3.264-1.44-10.56 4.16-15.328 7.04-2.976 1.984-5.536 4.896-8 7.584a750.4 750.4 0 0 0-107.936 143.68c-4.256 7.232-3.744 13.312 0.256 20.416 13.568 24.544 26.08 49.824 39.904 74.144 7.52 12.832 17.056 24.8 25.856 37.152 6.528 9.024 13.76 8.288 20.064-0.192 5.76-7.808 11.776-15.84 15.776-24.544 29.12-64 36.928-132.256 41.44-204.96z m-345.856 19.904c4.064 24.512 6.56 51.072 12.8 76.352 9.6 39.168 20.32 78.304 33.376 116.704 9.088 27.2 19.328 28.224 38.144 6.304 1.056-1.184 2.304-2.4 3.04-3.904 20.8-32.8 41.664-65.376 61.76-98.464a17.344 17.344 0 0 0-0.8-15.296c-35.904-53.696-72.736-106.976-120.224-151.936-3.712-3.648-11.52-8.544-13.536-7.328a21.6 21.6 0 0 0-9.28 14.4c-2.784 20.384-3.744 41.088-5.28 63.168z" fill="#FFFFFF" p-id="37132"></path></svg>