<?xml version="1.0" standalone="no"?><!DOCTYPE svg PUBLIC "-//W3C//DTD SVG 1.1//EN" "http://www.w3.org/Graphics/SVG/1.1/DTD/svg11.dtd"><svg t="1743822357838" class="icon" viewBox="0 0 1024 1024" version="1.1" xmlns="http://www.w3.org/2000/svg" p-id="54526" xmlns:xlink="http://www.w3.org/1999/xlink" width="200" height="200"><path d="M165.14 851.85C-9.44 730.46-48.47 558.94 67.22 374.69c119.3-190 293.58-299.13 521.22-307.39 267.73-9.72 417.05 219.64 300.03 460.06-73.08 150.15-191.35 254.01-349.06 311.74-91.97 69.98-194.49 69.96-300.05 43.18-25.66-6.5-51.01-16.57-74.22-30.43z" fill="#1041F2" p-id="54527"></path><path d="M165.14 851.85c126.24 39.2 251.18 40.28 374.27-12.74 0.76 12.75 9.69 15.43 19.89 15.01 111.42-4.61 213.45-34.7 296.14-113.36 41.01-39.01 64.18-85.95 58.23-145.01-5.55-55.12 40.61-94.03 42.74-152.23 91.5 110.48 86.48 252.52-7.77 353.19C828.61 924.92 674.13 963.18 505.87 959.8c-123.54-2.48-241.27-27.59-340.73-107.95z" fill="#3762FE" p-id="54528"></path><path d="M804.79 447.83c-85.88 199.26-279.45 329.81-480.85 324.88-87.67-2.14-157.86-30.97-190.29-120-25.19-84.59 6.85-149.19 71.71-201.53 53.74-43.37 116.8-69.38 183.53-80.86 120.64-20.76 241.66-26.3 357.38 26.42 24.24 11.05 50.89 20.53 58.52 51.09z" fill="#FEFEFE" p-id="54529"></path><path d="M804.79 447.83C651.23 333.66 346.01 346.5 204.18 472.89c-54.03 48.15-80.22 106.9-70.53 179.83-49.61-107.48 8.53-192.1 61.94-275.67 20.11-31.47 51.85-55.54 78.29-82.98 74.87-25.21 149.81-42.51 230.79-42.59 106.03-0.1 207.42 14.08 305.7 52.77 21.37 48.76 1.97 95.94-5.58 143.58z" fill="#3762FE" p-id="54530"></path><path d="M810.35 304.25c-10.07 22.81-24.8 9.78-38.27 4.82-155.77-57.36-312.6-58.88-470.51-9.29-9.84 3.09-21.77 11.97-27.7-5.72 106.04-75.66 218.82-131.4 354.46-119.11 85.76 7.78 151.15 44.35 182.02 129.3z" fill="#FCFCFE" p-id="54531"></path></svg>