<?xml version="1.0" standalone="no"?><!DOCTYPE svg PUBLIC "-//W3C//DTD SVG 1.1//EN" "http://www.w3.org/Graphics/SVG/1.1/DTD/svg11.dtd"><svg t="1743830533318" class="icon" viewBox="0 0 1024 1024" version="1.1" xmlns="http://www.w3.org/2000/svg" p-id="2626" xmlns:xlink="http://www.w3.org/1999/xlink" width="200" height="200"><path d="M 172.603 851.409 a 479.989 479.989 0 1 0 678.795 -678.818 a 479.989 479.989 0 1 0 -678.795 678.818 Z" fill="#ffffff" p-id="2627"></path><path d="M 512.008 32.01 c 265.09 0 479.989 214.898 479.989 479.989 s -214.898 479.989 -479.989 479.989 S 32.018 777.09 32.018 511.999 S 246.916 32.01 512.008 32.01 Z m 329.824 150.165 C 757.42 97.765 640.807 45.556 512.008 45.556 c -128.81 0 -245.423 52.2082 -329.824 136.619 C 97.773 266.577 45.565 383.189 45.565 511.999 c 0 128.8 52.2082 245.423 136.619 329.824 c 84.4105 84.4105 201.023 136.619 329.824 136.619 s 245.413 -52.2082 329.824 -136.619 c 84.4105 -84.4105 136.619 -201.023 136.619 -329.824 c 0 -128.81 -52.2082 -245.423 -136.619 -329.824 Z" fill="#b6b6b7" p-id="2628"></path><path d="M 177.524 186.263 c 73.8171 -73.8264 177.043 -90.2979 230.554 -36.7867 c 14.7371 14.7371 24.1588 33.2524 28.5368 53.8863 c -124.966 35.4648 -227.385 117.794 -282.743 224.516 c -4.6499 -3.28117 -9.03729 -6.96547 -13.1341 -11.0622 c -53.5113 -53.5113 -37.0398 -156.727 36.7867 -230.554 Z M 848.608 187.772 c -76.1513 -76.1513 -182.621 -93.1385 -237.81 -37.9492 c -15.4215 15.4215 -25.1994 34.846 -29.6337 56.4924 c 128.135 37.2554 232.944 122.35 289.39 232.344 c 5.69987 -3.78742 11.0622 -8.14669 16.0028 -13.0872 c 55.1893 -55.1799 38.1929 -161.649 -37.9492 -237.801 Z M 253.826 424.945 c 52.33 -52.33 125.491 -64.0016 163.421 -26.0807 c 37.921 37.9304 26.2494 111.091 -26.0807 163.421 c -52.33 52.33 -125.491 64.0016 -163.421 26.0807 s -26.2401 -111.1 26.0807 -163.421 Z" fill="#342c2b" p-id="2629"></path><path d="M 349.992 455.703 c 11.4841 11.4841 8.04356 33.5336 -7.68732 49.2645 c -15.7309 15.7309 -37.7804 19.1714 -49.2645 7.68732 s -8.04356 -33.5336 7.68732 -49.2645 c 15.7309 -15.7309 37.7804 -19.1714 49.2645 -7.68732 Z" fill="#ffffff" p-id="2630"></path><path d="M 632.836 562.295 a 133.994 97.1137 44.999 1 0 137.336 -137.342 a 133.994 97.1137 44.999 1 0 -137.336 137.342 Z" fill="#342c2b" p-id="2631"></path><path d="M 674.023 455.703 c -11.4841 11.4841 -8.04356 33.5336 7.68732 49.2645 c 15.7309 15.7309 37.7804 19.1714 49.2645 7.68732 s 8.04356 -33.5336 -7.68732 -49.2645 c -15.7309 -15.7309 -37.7804 -19.1714 -49.2645 -7.68732 Z" fill="#ffffff" p-id="2632"></path><path d="M 512.008 735.962 s -55.2456 -2.54994 -75.6263 -42.0928 c -45.7583 -88.7886 197.02 -88.7886 151.262 0 c -20.3902 39.5522 -75.6357 42.0928 -75.6357 42.0928 Z" fill="#342c2b" p-id="2633"></path><path d="M 511.914 737.875 c -0.159371 -0.009375 -56.3518 -2.60619 -77.2388 -43.1333 c -13.8466 -26.8681 -2.50307 -45.9646 19.4808 -57.2893 c 15.6465 -8.06231 36.7773 -12.1028 57.8612 -12.1028 c 21.0839 0 42.2053 4.03116 57.8518 12.1028 c 21.9839 11.3247 33.318 30.4212 19.4808 57.2893 c -20.887 40.5272 -77.0888 43.124 -77.2388 43.1333 h -0.19687 Z m -73.8358 -44.8771 c 19.4527 37.7429 71.5764 40.9303 73.9296 41.0522 c 2.35307 -0.121872 54.4769 -3.31868 73.9296 -41.0522 c 12.581 -24.4119 2.22183 -41.8022 -17.8215 -52.1332 c -15.084 -7.7717 -35.5773 -11.6622 -56.0987 -11.6622 c -20.5308 0 -41.0147 3.89054 -56.0987 11.6622 c -20.062 10.331 -30.4212 27.7118 -17.8403 52.1332 Z" fill="#342c2b" p-id="2634"></path><path d="M 508.623 736.122 h 6.76859 v 54.9924 h -6.76859 Z" fill="#342c2b" p-id="2635"></path><path d="M 449.055 807.755 s 63.411 79.8731 119.707 0 l -34.8742 -9.64669 l -16.659 -6.19673 l -34.7898 10.406 l -33.3836 5.43738 Z" fill="#d8292b" p-id="2636"></path><path d="M 322.186 751.74 c 0.112497 0.149996 37.1804 52.0769 110.463 53.005 c 11.2685 0.140622 23.4088 -0.928103 36.4023 -3.58117 c 13.031 -2.66244 26.915 -6.92797 41.6522 -13.1622 l 2.61557 6.21548 c -15.1684 6.41235 -29.4837 10.8091 -42.9271 13.556 c -13.481 2.75618 -26.0994 3.86241 -37.8273 3.72179 c -76.7138 -0.974981 -115.741 -55.6299 -115.853 -55.7893 l 5.47488 -3.96553 Z" fill="#342c2b" p-id="2637"></path><path d="M 707.293 755.715 c -0.140622 0.19687 -49.7707 69.7015 -147.09 53.2863 c -7.87482 -1.33122 -16.0403 -3.21555 -24.4963 -5.74674 c -8.00606 -2.39057 -16.3403 -5.38113 -25.0026 -9.04667 l 2.61557 -6.21548 c 8.33419 3.52492 16.4434 6.4311 24.3182 8.78417 c 8.21231 2.44682 16.1059 4.28427 23.6807 5.55924 c 93.176 15.7215 140.397 -50.427 140.528 -50.6145 l 5.44675 3.99366 Z" fill="#342c2b" p-id="2638"></path></svg>