<?xml version="1.0" standalone="no"?><!DOCTYPE svg PUBLIC "-//W3C//DTD SVG 1.1//EN" "http://www.w3.org/Graphics/SVG/1.1/DTD/svg11.dtd"><svg t="1743835622956" class="icon" viewBox="0 0 1024 1024" version="1.1" xmlns="http://www.w3.org/2000/svg" p-id="23338" xmlns:xlink="http://www.w3.org/1999/xlink" width="200" height="200"><path d="M672.411826 93.273043H77.601391C49.864348 93.273043 22.26087 119.941565 22.26087 146.610087v779.575652C22.26087 952.765217 49.90887 979.478261 77.601391 979.478261h587.865044c27.692522 0 55.340522-26.668522 55.340522-53.292522V146.610087c6.90087-26.713043-20.74713-53.337043-48.395131-53.337044zM395.753739 633.010087H153.689043c-13.846261 0-20.74713-6.678261-20.74713-20.034783 0-13.312 6.90087-19.945739 20.74713-19.945739h242.064696c13.801739 0 20.74713 6.678261 20.747131 19.990261 0 13.312-13.801739 19.990261-20.747131 19.990261z m179.823304-159.922087H153.689043c-13.846261 0-20.74713-6.678261-20.74713-20.034783 0-13.267478 6.90087-19.945739 20.74713-19.945739h421.888c13.801739 0 20.74713 6.678261 20.747131 19.990261 0 13.356522-6.90087 19.990261-20.747131 19.990261z m0-146.610087H153.689043c-13.846261 0-20.74713-6.678261-20.74713-19.990261 0-13.312 6.90087-19.990261 20.74713-19.990261h421.888c13.801739 0 20.74713 6.678261 20.747131 20.034783 0 13.312-6.90087 19.945739-20.747131 19.945739z" fill="#FFDF6F" p-id="23339"></path><path d="M395.397565 717.022609l437.069913-437.203479L1001.73913 449.135304l-437.158956 437.114435z" fill="#FF837F" p-id="23340"></path><path d="M378.434783 828.14887c12.02087 6.41113 30.096696 12.866783 42.117565 25.733565 12.02087 12.866783 18.075826 25.733565 24.041739 45.011478l120.386783-25.733565L414.541913 712.347826 378.434783 828.14887z" fill="#E6E6E6" p-id="23341"></path><path d="M370.287304 839.546435l-21.548521 93.273043 93.317565-21.504c-7.212522-14.336-14.380522-35.884522-28.716522-50.220521-7.168-7.212522-28.716522-14.380522-43.052522-21.548522z" fill="#534E4E" p-id="23342"></path><path d="M181.470609 186.546087a21.682087 21.682087 0 0 1-19.277913-21.504V21.548522c0-14.380522 6.41113-21.548522 19.277913-21.548522 12.911304 0 19.322435 7.168 19.322434 21.548522v143.493565c0 14.336-6.455652 21.504-19.322434 21.504z m167.268174 0c-12.866783 0-19.277913-7.123478-19.277913-21.504V21.548522C329.46087 7.123478 335.872 0 348.738783 0c12.911304 0 19.322435 7.168 19.322434 21.548522v143.493565a21.682087 21.682087 0 0 1-19.322434 21.504z m160.857043 0c-6.455652 0-12.911304-7.123478-12.911304-21.504V21.548522c0-14.380522 6.455652-21.548522 19.322435-21.548522 12.911304 0 19.322435 7.168 19.322434 21.548522v143.493565c-6.455652 14.336-12.911304 21.504-25.733565 21.504z" fill="#FFFFFF" p-id="23343"></path></svg>