<?xml version="1.0" standalone="no"?><!DOCTYPE svg PUBLIC "-//W3C//DTD SVG 1.1//EN" "http://www.w3.org/Graphics/SVG/1.1/DTD/svg11.dtd"><svg t="1743821738045" class="icon" viewBox="0 0 4181 1024" version="1.1" xmlns="http://www.w3.org/2000/svg" p-id="12787" xmlns:xlink="http://www.w3.org/1999/xlink" width="816.6015625" height="200"><path d="M1887.36 283.349333l-136.810667 176.554667-136.832-176.554667h-100.608L1700.266667 524.821333l-187.136 241.450667h100.608l136.832-176.554667 136.810666 176.554667h100.608L1800.853333 524.8l187.114667-241.472zM1142.890667 472.490667H1416.533333v-84.501334H1142.890667v-209.28h309.866666v-84.48H1058.346667v672.042667H1480.917333v-84.522667H1142.890667zM2275.712 697.856c-94.314667 0-171.029333-76.714667-171.029333-171.029333 0-94.293333 76.714667-171.029333 171.029333-171.029334 94.293333 0 171.029333 76.714667 171.029333 171.029334 0 94.293333-76.736 171.029333-171.029333 171.029333m0-426.56c-140.458667 0-254.4 113.322667-255.488 253.525333h-0.064v486.933334h84.522667V716.672a254.592 254.592 0 0 0 171.029333 65.706667c141.12 0 255.530667-114.432 255.530667-255.573334 0-141.12-114.410667-255.509333-255.530667-255.509333M2676.117333 338.56v-55.210667h-84.522666V766.293333h84.522666v-260.266666c10.816-46.976 48.704-150.208 173.034667-150.208v-84.522667s-97.493333-14.954667-173.034667 67.264M2943.104 484.565333c17.813333-80.896 88-136.810667 171.626667-136.810666 61.013333 0 140.864 56.32 145.749333 136.810666h-317.376z m172.010667-213.269333c-140.010667-0.768-254.122667 112.128-254.890667 252.16-0.746667 140.010667 112.128 254.122667 252.16 254.869333 75.221333 0.426667 142.912-32.021333 189.610667-83.818666l-56.064-56.064c-31.829333 40.874667-77.781333 63.744-133.162667 63.445333-85.738667-0.469333-146.901333-56.341333-171.264-144.874667h396.032c0.981333-8.810667 1.514667-17.749333 1.557333-26.816 0.768-140.010667-83.968-258.154667-223.978666-258.901333zM3625.813333 488.597333c-96.554667-20.117333-156.928-24.149333-156.928-80.490666 0-44.266667 48.298667-68.416 96.576-68.416 64.405333 0 104.64 60.373333 104.64 60.373333l64.384-44.266667s-60.373333-88.533333-164.992-88.533333c-92.565333 0-181.098667 48.298667-181.098666 148.906667 0 100.586667 99.157333 123.157333 156.949333 132.778666 72.448 12.074667 120.746667 32.213333 120.746667 84.522667 0 44.266667-56.362667 72.426667-112.704 72.426667-72.426667 0-120.725333-64.384-120.725334-64.384l-64.384 48.298666s68.416 88.533333 185.109334 88.533334c128.789333 0 197.205333-72.448 197.205333-148.906667 0-52.309333-20.757333-119.168-124.757333-140.842667M4040.32 488.597333c-96.576-20.117333-156.928-24.149333-156.928-80.490666 0-44.266667 48.277333-68.416 96.576-68.416 64.384 0 104.618667 60.373333 104.618667 60.373333l64.405333-44.266667s-60.373333-88.533333-165.013333-88.533333c-92.544 0-181.077333 48.298667-181.077334 148.906667 0 100.586667 99.136 123.157333 156.949334 132.778666 72.426667 12.074667 120.725333 32.213333 120.725333 84.522667 0 44.266667-56.341333 72.426667-112.682667 72.426667-72.448 0-120.746667-64.384-120.746666-64.384l-64.362667 48.298666s68.394667 88.533333 185.109333 88.533334c128.768 0 197.184-72.448 197.184-148.906667 0-52.309333-20.736-119.168-124.757333-140.842667" fill="#FA000B" p-id="12788"></path><path d="M417.941333 512.746667H177.642667l120.149333-313.514667 120.149333 313.514667zM257.557333 94.229333L0 766.272h80.490667l63.232-164.992H451.84l63.232 164.992h80.490667L338.026667 94.229333h-80.469334zM647.893333 766.272h84.522667V94.229333H647.893333zM851.797333 293.418667l6.037334 472.853333h84.522666l-6.037333-472.853333zM978.901333 128.469333a106.88 106.88 0 0 1-77.845333-77.845333L893.056 4.053333l-8.021333 46.592a106.88 106.88 0 0 1-77.845334 77.845334l-46.592 8 46.592 8a106.901333 106.901333 0 0 1 77.866667 77.866666l8 46.592 8-46.613333a106.901333 106.901333 0 0 1 77.845333-77.845333l46.592-8-46.592-8z" fill="#FF9500" p-id="12789"></path></svg>