<svg xmlns="http://www.w3.org/2000/svg" width="420" height="420" viewBox="0 0 420 420" fill="none">
  <rect width="420" height="420" rx="28" fill="#ffffff"/>
  <rect x="24" y="24" width="372" height="372" rx="20" fill="#ffffff" stroke="#d8e2f2" stroke-width="8"/>
  <rect x="44" y="44" width="88" height="88" rx="8" fill="#111111"/>
  <rect x="60" y="60" width="56" height="56" rx="4" fill="#ffffff"/>
  <rect x="72" y="72" width="32" height="32" rx="3" fill="#111111"/>
  <rect x="288" y="44" width="88" height="88" rx="8" fill="#111111"/>
  <rect x="304" y="60" width="56" height="56" rx="4" fill="#ffffff"/>
  <rect x="316" y="72" width="32" height="32" rx="3" fill="#111111"/>
  <rect x="44" y="288" width="88" height="88" rx="8" fill="#111111"/>
  <rect x="60" y="304" width="56" height="56" rx="4" fill="#ffffff"/>
  <rect x="72" y="316" width="32" height="32" rx="3" fill="#111111"/>
  <g fill="#111111">
    <rect x="164" y="48" width="16" height="16" rx="2"/>
    <rect x="180" y="48" width="16" height="16" rx="2"/>
    <rect x="212" y="48" width="16" height="16" rx="2"/>
    <rect x="244" y="48" width="16" height="16" rx="2"/>
    <rect x="164" y="80" width="16" height="16" rx="2"/>
    <rect x="196" y="80" width="16" height="16" rx="2"/>
    <rect x="228" y="80" width="16" height="16" rx="2"/>
    <rect x="164" y="112" width="16" height="16" rx="2"/>
    <rect x="180" y="128" width="16" height="16" rx="2"/>
    <rect x="212" y="128" width="16" height="16" rx="2"/>
    <rect x="244" y="128" width="16" height="16" rx="2"/>
    <rect x="164" y="164" width="16" height="16" rx="2"/>
    <rect x="196" y="164" width="16" height="16" rx="2"/>
    <rect x="228" y="164" width="16" height="16" rx="2"/>
    <rect x="260" y="164" width="16" height="16" rx="2"/>
    <rect x="292" y="164" width="16" height="16" rx="2"/>
    <rect x="324" y="164" width="16" height="16" rx="2"/>
    <rect x="148" y="196" width="16" height="16" rx="2"/>
    <rect x="180" y="196" width="16" height="16" rx="2"/>
    <rect x="212" y="196" width="16" height="16" rx="2"/>
    <rect x="260" y="196" width="16" height="16" rx="2"/>
    <rect x="308" y="196" width="16" height="16" rx="2"/>
    <rect x="340" y="196" width="16" height="16" rx="2"/>
    <rect x="148" y="228" width="16" height="16" rx="2"/>
    <rect x="180" y="228" width="16" height="16" rx="2"/>
    <rect x="228" y="228" width="16" height="16" rx="2"/>
    <rect x="260" y="228" width="16" height="16" rx="2"/>
    <rect x="292" y="228" width="16" height="16" rx="2"/>
    <rect x="324" y="228" width="16" height="16" rx="2"/>
    <rect x="164" y="260" width="16" height="16" rx="2"/>
    <rect x="196" y="260" width="16" height="16" rx="2"/>
    <rect x="228" y="260" width="16" height="16" rx="2"/>
    <rect x="276" y="260" width="16" height="16" rx="2"/>
    <rect x="324" y="260" width="16" height="16" rx="2"/>
    <rect x="164" y="292" width="16" height="16" rx="2"/>
    <rect x="212" y="292" width="16" height="16" rx="2"/>
    <rect x="244" y="292" width="16" height="16" rx="2"/>
    <rect x="292" y="292" width="16" height="16" rx="2"/>
    <rect x="340" y="292" width="16" height="16" rx="2"/>
    <rect x="148" y="324" width="16" height="16" rx="2"/>
    <rect x="180" y="324" width="16" height="16" rx="2"/>
    <rect x="228" y="324" width="16" height="16" rx="2"/>
    <rect x="260" y="324" width="16" height="16" rx="2"/>
    <rect x="292" y="324" width="16" height="16" rx="2"/>
    <rect x="324" y="324" width="16" height="16" rx="2"/>
    <rect x="164" y="356" width="16" height="16" rx="2"/>
    <rect x="196" y="356" width="16" height="16" rx="2"/>
    <rect x="244" y="356" width="16" height="16" rx="2"/>
    <rect x="276" y="356" width="16" height="16" rx="2"/>
    <rect x="324" y="356" width="16" height="16" rx="2"/>
  </g>
  <g>
    <rect x="140" y="140" width="140" height="140" rx="30" fill="#f8fbff" stroke="#ffffff" stroke-width="10"/>
    <rect x="149" y="149" width="122" height="122" rx="24" fill="url(#g)"/>
    <text x="210" y="207" text-anchor="middle" fill="#ffffff" font-family="Arial, sans-serif" font-size="42" font-weight="700">AI</text>
    <text x="210" y="244" text-anchor="middle" fill="#ddebff" font-family="Arial, sans-serif" font-size="18" font-weight="600">公众号二维码</text>
  </g>
  <defs>
    <linearGradient id="g" x1="150" y1="150" x2="270" y2="270" gradientUnits="userSpaceOnUse">
      <stop stop-color="#8bc0ff"/>
      <stop offset="1" stop-color="#2d65d4"/>
    </linearGradient>
  </defs>
</svg>